<svg xmlns="http://www.w3.org/2000/svg" xmlns:xlink="http://www.w3.org/1999/xlink" width="1080" zoomAndPan="magnify" viewBox="0 0 810 1439.999935" height="1920" preserveAspectRatio="xMidYMid meet" version="1.0"><defs><clipPath id="44265894ab"><path d="M 250 565.289062 L 351 565.289062 L 351 662 L 250 662 Z M 250 565.289062 " clip-rule="nonzero"/></clipPath><clipPath id="d6cd98e909"><path d="M 461 565.289062 L 560 565.289062 L 560 662 L 461 662 Z M 461 565.289062 " clip-rule="nonzero"/></clipPath><clipPath id="59a53aa6aa"><path d="M 243 714 L 567 714 L 567 726 L 243 726 Z M 243 714 " clip-rule="nonzero"/></clipPath><clipPath id="b48cb35883"><path d="M 132.375 447.375 L 677.625 447.375 L 677.625 992.625 L 132.375 992.625 Z M 132.375 447.375 " clip-rule="nonzero"/></clipPath></defs><g clip-path="url(#44265894ab)"><path fill="#fffffe" d="M 255.691406 661.007812 C 255.328125 661.007812 254.972656 660.972656 254.617188 660.902344 C 254.261719 660.832031 253.917969 660.726562 253.582031 660.585938 C 253.25 660.449219 252.933594 660.28125 252.632812 660.078125 C 252.332031 659.878906 252.054688 659.648438 251.796875 659.394531 C 251.542969 659.136719 251.3125 658.859375 251.113281 658.558594 C 250.910156 658.257812 250.742188 657.9375 250.605469 657.605469 C 250.464844 657.269531 250.359375 656.925781 250.289062 656.570312 C 250.21875 656.214844 250.183594 655.859375 250.183594 655.496094 L 250.183594 589.871094 C 250.183594 589.066406 250.222656 588.265625 250.304688 587.464844 C 250.382812 586.664062 250.5 585.871094 250.65625 585.082031 C 250.8125 584.292969 251.007812 583.511719 251.238281 582.742188 C 251.472656 581.972656 251.742188 581.214844 252.050781 580.472656 C 252.359375 579.730469 252.699219 579.003906 253.078125 578.292969 C 253.457031 577.585938 253.871094 576.894531 254.316406 576.226562 C 254.761719 575.558594 255.238281 574.910156 255.75 574.289062 C 256.257812 573.667969 256.796875 573.070312 257.363281 572.503906 C 257.929688 571.933594 258.527344 571.394531 259.144531 570.882812 C 259.765625 570.371094 260.410156 569.894531 261.078125 569.445312 C 261.746094 568.996094 262.433594 568.585938 263.140625 568.203125 C 263.851562 567.824219 264.574219 567.480469 265.316406 567.171875 C 266.058594 566.863281 266.816406 566.589844 267.582031 566.355469 C 268.351562 566.121094 269.128906 565.925781 269.917969 565.769531 C 270.707031 565.609375 271.5 565.492188 272.296875 565.410156 C 273.097656 565.332031 273.898438 565.292969 274.703125 565.289062 L 345.394531 565.289062 C 345.753906 565.289062 346.113281 565.324219 346.46875 565.394531 C 346.820312 565.464844 347.167969 565.570312 347.5 565.710938 C 347.835938 565.847656 348.152344 566.019531 348.453125 566.21875 C 348.753906 566.417969 349.03125 566.648438 349.285156 566.902344 C 349.542969 567.160156 349.769531 567.4375 349.972656 567.738281 C 350.171875 568.039062 350.339844 568.359375 350.480469 568.691406 C 350.617188 569.027344 350.722656 569.371094 350.792969 569.726562 C 350.863281 570.082031 350.898438 570.441406 350.898438 570.800781 C 350.898438 571.164062 350.863281 571.523438 350.792969 571.875 C 350.722656 572.230469 350.617188 572.578125 350.480469 572.910156 C 350.339844 573.246094 350.171875 573.5625 349.972656 573.863281 C 349.769531 574.164062 349.542969 574.441406 349.285156 574.699219 C 349.03125 574.953125 348.753906 575.183594 348.453125 575.382812 C 348.152344 575.585938 347.835938 575.753906 347.5 575.894531 C 347.167969 576.03125 346.820312 576.136719 346.46875 576.207031 C 346.113281 576.277344 345.753906 576.3125 345.394531 576.3125 L 274.703125 576.3125 C 273.816406 576.316406 272.9375 576.40625 272.066406 576.578125 C 271.195312 576.753906 270.351562 577.015625 269.53125 577.355469 C 268.710938 577.699219 267.933594 578.117188 267.195312 578.609375 C 266.457031 579.105469 265.777344 579.667969 265.148438 580.296875 C 264.523438 580.925781 263.964844 581.609375 263.472656 582.351562 C 262.976562 583.089844 262.5625 583.871094 262.222656 584.691406 C 261.882812 585.511719 261.628906 586.359375 261.457031 587.230469 C 261.28125 588.101562 261.195312 588.984375 261.195312 589.871094 L 261.195312 655.496094 C 261.195312 655.859375 261.160156 656.214844 261.089844 656.570312 C 261.019531 656.925781 260.914062 657.269531 260.777344 657.605469 C 260.636719 657.9375 260.46875 658.257812 260.269531 658.558594 C 260.066406 658.859375 259.839844 659.136719 259.582031 659.394531 C 259.328125 659.648438 259.050781 659.878906 258.75 660.078125 C 258.449219 660.28125 258.132812 660.449219 257.796875 660.585938 C 257.464844 660.726562 257.117188 660.832031 256.765625 660.902344 C 256.410156 660.972656 256.050781 661.007812 255.691406 661.007812 Z M 255.691406 661.007812 " fill-opacity="1" fill-rule="nonzero"/></g><path fill="#fffffe" d="M 345.394531 874.964844 L 274.703125 874.964844 C 273.898438 874.964844 273.097656 874.925781 272.300781 874.84375 C 271.503906 874.765625 270.710938 874.644531 269.921875 874.488281 C 269.136719 874.332031 268.359375 874.136719 267.589844 873.902344 C 266.820312 873.667969 266.066406 873.394531 265.324219 873.089844 C 264.585938 872.78125 263.859375 872.4375 263.152344 872.058594 C 262.445312 871.679688 261.757812 871.265625 261.089844 870.820312 C 260.421875 870.371094 259.777344 869.894531 259.160156 869.382812 C 258.539062 868.875 257.945312 868.335938 257.375 867.765625 C 256.808594 867.199219 256.269531 866.605469 255.761719 865.984375 C 255.253906 865.363281 254.773438 864.71875 254.328125 864.050781 C 253.882812 863.382812 253.46875 862.691406 253.089844 861.984375 C 252.710938 861.277344 252.367188 860.550781 252.0625 859.808594 C 251.753906 859.066406 251.484375 858.3125 251.25 857.542969 C 251.015625 856.773438 250.820312 855.996094 250.660156 855.207031 C 250.503906 854.417969 250.386719 853.625 250.304688 852.828125 C 250.226562 852.027344 250.1875 851.226562 250.183594 850.421875 L 250.183594 791.632812 C 250.183594 791.269531 250.21875 790.910156 250.292969 790.554688 C 250.363281 790.203125 250.464844 789.855469 250.605469 789.523438 C 250.742188 789.1875 250.914062 788.871094 251.113281 788.570312 C 251.316406 788.269531 251.542969 787.992188 251.796875 787.734375 C 252.054688 787.480469 252.332031 787.25 252.632812 787.050781 C 252.933594 786.851562 253.25 786.679688 253.585938 786.542969 C 253.917969 786.402344 254.261719 786.300781 254.617188 786.226562 C 254.972656 786.15625 255.328125 786.121094 255.691406 786.121094 C 256.050781 786.121094 256.410156 786.15625 256.765625 786.226562 C 257.117188 786.300781 257.460938 786.402344 257.796875 786.542969 C 258.128906 786.679688 258.449219 786.851562 258.75 787.050781 C 259.046875 787.25 259.328125 787.480469 259.582031 787.734375 C 259.839844 787.992188 260.066406 788.269531 260.265625 788.570312 C 260.46875 788.871094 260.636719 789.1875 260.777344 789.523438 C 260.914062 789.855469 261.019531 790.203125 261.089844 790.554688 C 261.160156 790.910156 261.195312 791.269531 261.195312 791.632812 L 261.195312 850.421875 C 261.195312 851.308594 261.28125 852.1875 261.457031 853.058594 C 261.628906 853.929688 261.882812 854.777344 262.222656 855.597656 C 262.5625 856.417969 262.980469 857.195312 263.472656 857.933594 C 263.964844 858.671875 264.523438 859.355469 265.152344 859.984375 C 265.777344 860.609375 266.460938 861.171875 267.199219 861.664062 C 267.9375 862.15625 268.714844 862.574219 269.535156 862.914062 C 270.351562 863.253906 271.199219 863.511719 272.066406 863.683594 C 272.9375 863.855469 273.816406 863.941406 274.703125 863.941406 L 345.394531 863.941406 C 345.753906 863.941406 346.113281 863.980469 346.46875 864.050781 C 346.820312 864.121094 347.167969 864.222656 347.5 864.363281 C 347.835938 864.5 348.152344 864.671875 348.453125 864.871094 C 348.753906 865.074219 349.03125 865.300781 349.285156 865.558594 C 349.542969 865.8125 349.769531 866.09375 349.972656 866.394531 C 350.171875 866.695312 350.339844 867.011719 350.480469 867.34375 C 350.617188 867.679688 350.722656 868.023438 350.792969 868.378906 C 350.863281 868.734375 350.898438 869.09375 350.898438 869.453125 C 350.898438 869.816406 350.863281 870.175781 350.792969 870.53125 C 350.722656 870.886719 350.617188 871.230469 350.480469 871.5625 C 350.339844 871.898438 350.171875 872.214844 349.972656 872.515625 C 349.769531 872.816406 349.542969 873.097656 349.285156 873.351562 C 349.03125 873.609375 348.753906 873.835938 348.453125 874.039062 C 348.152344 874.238281 347.835938 874.410156 347.5 874.546875 C 347.167969 874.683594 346.820312 874.789062 346.46875 874.859375 C 346.113281 874.929688 345.753906 874.964844 345.394531 874.964844 Z M 345.394531 874.964844 " fill-opacity="1" fill-rule="nonzero"/><path fill="#fffffe" d="M 534.96875 874.964844 L 467.066406 874.964844 C 466.703125 874.964844 466.347656 874.929688 465.992188 874.859375 C 465.636719 874.789062 465.292969 874.683594 464.957031 874.546875 C 464.625 874.410156 464.308594 874.238281 464.007812 874.039062 C 463.707031 873.835938 463.429688 873.609375 463.171875 873.351562 C 462.917969 873.097656 462.6875 872.816406 462.488281 872.515625 C 462.285156 872.214844 462.117188 871.898438 461.980469 871.5625 C 461.839844 871.230469 461.734375 870.886719 461.664062 870.53125 C 461.59375 870.175781 461.558594 869.816406 461.558594 869.453125 C 461.558594 869.09375 461.59375 868.734375 461.664062 868.378906 C 461.734375 868.023438 461.839844 867.679688 461.980469 867.34375 C 462.117188 867.011719 462.285156 866.695312 462.488281 866.394531 C 462.6875 866.09375 462.917969 865.8125 463.171875 865.558594 C 463.429688 865.300781 463.707031 865.074219 464.007812 864.871094 C 464.308594 864.671875 464.625 864.5 464.957031 864.363281 C 465.292969 864.222656 465.636719 864.121094 465.992188 864.050781 C 466.347656 863.980469 466.703125 863.941406 467.066406 863.941406 L 534.96875 863.941406 C 535.855469 863.941406 536.734375 863.855469 537.605469 863.683594 C 538.476562 863.511719 539.320312 863.253906 540.140625 862.914062 C 540.960938 862.574219 541.742188 862.160156 542.480469 861.664062 C 543.21875 861.171875 543.902344 860.613281 544.53125 859.984375 C 545.160156 859.359375 545.722656 858.675781 546.214844 857.9375 C 546.710938 857.199219 547.128906 856.417969 547.46875 855.597656 C 547.808594 854.777344 548.070312 853.933594 548.242188 853.0625 C 548.417969 852.191406 548.507812 851.308594 548.511719 850.421875 L 548.511719 787.957031 C 548.511719 787.59375 548.546875 787.238281 548.617188 786.882812 C 548.6875 786.527344 548.792969 786.183594 548.929688 785.847656 C 549.066406 785.511719 549.238281 785.195312 549.4375 784.894531 C 549.640625 784.59375 549.867188 784.316406 550.121094 784.058594 C 550.378906 783.804688 550.65625 783.574219 550.957031 783.375 C 551.257812 783.171875 551.574219 783.003906 551.910156 782.863281 C 552.242188 782.726562 552.585938 782.621094 552.941406 782.550781 C 553.296875 782.480469 553.65625 782.445312 554.015625 782.445312 C 554.378906 782.445312 554.734375 782.480469 555.089844 782.550781 C 555.445312 782.621094 555.789062 782.726562 556.121094 782.863281 C 556.457031 783.003906 556.773438 783.171875 557.074219 783.375 C 557.375 783.574219 557.652344 783.804688 557.910156 784.058594 C 558.164062 784.316406 558.394531 784.59375 558.59375 784.894531 C 558.792969 785.195312 558.964844 785.511719 559.101562 785.847656 C 559.242188 786.183594 559.34375 786.527344 559.414062 786.882812 C 559.484375 787.238281 559.523438 787.59375 559.523438 787.957031 L 559.523438 850.421875 C 559.519531 851.226562 559.480469 852.027344 559.398438 852.828125 C 559.320312 853.628906 559.203125 854.421875 559.042969 855.210938 C 558.886719 856 558.691406 856.78125 558.457031 857.550781 C 558.222656 858.320312 557.949219 859.074219 557.640625 859.816406 C 557.332031 860.558594 556.988281 861.285156 556.609375 861.996094 C 556.230469 862.703125 555.816406 863.390625 555.371094 864.0625 C 554.921875 864.730469 554.445312 865.375 553.933594 865.996094 C 553.425781 866.617188 552.886719 867.210938 552.316406 867.78125 C 551.75 868.347656 551.152344 868.886719 550.53125 869.398438 C 549.910156 869.90625 549.265625 870.386719 548.597656 870.832031 C 547.929688 871.277344 547.242188 871.691406 546.53125 872.070312 C 545.824219 872.449219 545.097656 872.792969 544.355469 873.097656 C 543.613281 873.40625 542.855469 873.675781 542.089844 873.910156 C 541.320312 874.144531 540.539062 874.339844 539.753906 874.496094 C 538.964844 874.652344 538.171875 874.769531 537.371094 874.847656 C 536.570312 874.925781 535.769531 874.964844 534.96875 874.964844 Z M 534.96875 874.964844 " fill-opacity="1" fill-rule="nonzero"/><g clip-path="url(#d6cd98e909)"><path fill="#fffffe" d="M 554.015625 661.007812 C 553.65625 661.007812 553.296875 660.972656 552.941406 660.902344 C 552.585938 660.832031 552.242188 660.726562 551.910156 660.585938 C 551.574219 660.449219 551.257812 660.28125 550.957031 660.078125 C 550.65625 659.878906 550.378906 659.648438 550.121094 659.394531 C 549.867188 659.136719 549.640625 658.859375 549.4375 658.558594 C 549.238281 658.257812 549.066406 657.9375 548.929688 657.605469 C 548.792969 657.269531 548.6875 656.925781 548.617188 656.570312 C 548.546875 656.214844 548.511719 655.859375 548.511719 655.496094 L 548.511719 589.871094 C 548.511719 588.980469 548.421875 588.097656 548.25 587.226562 C 548.078125 586.351562 547.820312 585.503906 547.480469 584.683594 C 547.140625 583.859375 546.722656 583.078125 546.226562 582.339844 C 545.734375 581.597656 545.171875 580.914062 544.542969 580.285156 C 543.914062 579.65625 543.230469 579.09375 542.492188 578.597656 C 541.75 578.101562 540.972656 577.6875 540.148438 577.34375 C 539.328125 577.003906 538.480469 576.746094 537.609375 576.574219 C 536.738281 576.398438 535.855469 576.3125 534.96875 576.3125 L 467.066406 576.3125 C 466.703125 576.3125 466.347656 576.277344 465.992188 576.207031 C 465.636719 576.136719 465.292969 576.03125 464.957031 575.894531 C 464.625 575.753906 464.308594 575.585938 464.007812 575.382812 C 463.707031 575.183594 463.429688 574.953125 463.171875 574.699219 C 462.917969 574.441406 462.6875 574.164062 462.488281 573.863281 C 462.285156 573.5625 462.117188 573.246094 461.980469 572.910156 C 461.839844 572.578125 461.734375 572.230469 461.664062 571.875 C 461.59375 571.523438 461.558594 571.164062 461.558594 570.800781 C 461.558594 570.441406 461.59375 570.082031 461.664062 569.726562 C 461.734375 569.371094 461.839844 569.027344 461.980469 568.691406 C 462.117188 568.359375 462.285156 568.039062 462.488281 567.738281 C 462.6875 567.4375 462.917969 567.160156 463.171875 566.902344 C 463.429688 566.648438 463.707031 566.417969 464.007812 566.21875 C 464.308594 566.019531 464.625 565.847656 464.957031 565.710938 C 465.292969 565.570312 465.636719 565.464844 465.992188 565.394531 C 466.347656 565.324219 466.703125 565.289062 467.066406 565.289062 L 534.96875 565.289062 C 535.769531 565.292969 536.574219 565.332031 537.371094 565.410156 C 538.171875 565.492188 538.964844 565.609375 539.753906 565.769531 C 540.542969 565.925781 541.320312 566.121094 542.089844 566.355469 C 542.859375 566.589844 543.617188 566.863281 544.359375 567.171875 C 545.101562 567.480469 545.824219 567.824219 546.535156 568.203125 C 547.242188 568.582031 547.933594 568.996094 548.601562 569.445312 C 549.269531 569.890625 549.914062 570.371094 550.535156 570.882812 C 551.15625 571.390625 551.75 571.929688 552.320312 572.5 C 552.886719 573.070312 553.425781 573.664062 553.9375 574.285156 C 554.445312 574.910156 554.925781 575.554688 555.371094 576.222656 C 555.820312 576.890625 556.230469 577.582031 556.613281 578.292969 C 556.992188 579 557.335938 579.726562 557.644531 580.46875 C 557.949219 581.214844 558.222656 581.96875 558.457031 582.738281 C 558.691406 583.511719 558.886719 584.289062 559.042969 585.078125 C 559.203125 585.867188 559.320312 586.664062 559.398438 587.464844 C 559.480469 588.265625 559.519531 589.066406 559.523438 589.871094 L 559.523438 655.496094 C 559.523438 655.859375 559.484375 656.214844 559.414062 656.570312 C 559.34375 656.925781 559.242188 657.269531 559.101562 657.605469 C 558.964844 657.9375 558.792969 658.257812 558.59375 658.558594 C 558.394531 658.859375 558.164062 659.136719 557.910156 659.394531 C 557.652344 659.648438 557.375 659.878906 557.074219 660.078125 C 556.773438 660.28125 556.457031 660.449219 556.121094 660.585938 C 555.789062 660.726562 555.445312 660.832031 555.089844 660.902344 C 554.734375 660.972656 554.378906 661.007812 554.015625 661.007812 Z M 554.015625 661.007812 " fill-opacity="1" fill-rule="nonzero"/></g><g clip-path="url(#59a53aa6aa)"><path fill="#fffffe" d="M 561.171875 725.640625 L 248.460938 725.640625 C 248.097656 725.640625 247.738281 725.605469 247.386719 725.535156 C 247.03125 725.464844 246.6875 725.359375 246.351562 725.21875 C 246.019531 725.082031 245.703125 724.910156 245.402344 724.710938 C 245.101562 724.511719 244.824219 724.28125 244.566406 724.027344 C 244.3125 723.769531 244.082031 723.492188 243.882812 723.191406 C 243.679688 722.890625 243.511719 722.570312 243.375 722.238281 C 243.234375 721.902344 243.128906 721.558594 243.058594 721.203125 C 242.988281 720.847656 242.953125 720.488281 242.953125 720.128906 C 242.953125 719.765625 242.988281 719.40625 243.058594 719.054688 C 243.128906 718.699219 243.234375 718.351562 243.375 718.019531 C 243.511719 717.683594 243.679688 717.367188 243.882812 717.066406 C 244.082031 716.765625 244.3125 716.488281 244.566406 716.230469 C 244.824219 715.976562 245.101562 715.746094 245.402344 715.546875 C 245.703125 715.34375 246.019531 715.175781 246.351562 715.035156 C 246.6875 714.898438 247.03125 714.792969 247.386719 714.722656 C 247.738281 714.652344 248.097656 714.617188 248.460938 714.617188 L 561.171875 714.617188 C 561.535156 714.617188 561.894531 714.652344 562.246094 714.722656 C 562.601562 714.792969 562.945312 714.898438 563.28125 715.035156 C 563.613281 715.175781 563.929688 715.34375 564.230469 715.546875 C 564.53125 715.746094 564.808594 715.976562 565.066406 716.230469 C 565.320312 716.488281 565.550781 716.765625 565.75 717.066406 C 565.953125 717.367188 566.121094 717.683594 566.257812 718.019531 C 566.398438 718.351562 566.503906 718.699219 566.574219 719.054688 C 566.644531 719.40625 566.679688 719.765625 566.679688 720.128906 C 566.679688 720.488281 566.644531 720.847656 566.574219 721.203125 C 566.503906 721.558594 566.398438 721.902344 566.257812 722.238281 C 566.121094 722.570312 565.953125 722.890625 565.75 723.191406 C 565.550781 723.492188 565.320312 723.769531 565.066406 724.027344 C 564.808594 724.28125 564.53125 724.511719 564.230469 724.710938 C 563.929688 724.910156 563.613281 725.082031 563.28125 725.21875 C 562.945312 725.359375 562.601562 725.464844 562.246094 725.535156 C 561.894531 725.605469 561.535156 725.640625 561.171875 725.640625 Z M 561.171875 725.640625 " fill-opacity="1" fill-rule="nonzero"/></g><g clip-path="url(#b48cb35883)"><path fill="#ffffff" d="M 405 992.625 C 254.382812 992.625 132.375 869.773438 132.375 720 C 132.375 570.222656 254.382812 447.375 405 447.375 C 555.617188 447.375 677.625 569.382812 677.625 720 C 677.625 870.617188 554.773438 992.625 405 992.625 Z M 405 464.203125 C 263.636719 464.203125 149.203125 578.636719 149.203125 720 C 149.203125 861.359375 263.636719 975.796875 405 975.796875 C 546.359375 975.796875 660.796875 861.359375 660.796875 720 C 660.796875 578.636719 545.519531 464.203125 405 464.203125 Z M 405 464.203125 " fill-opacity="1" fill-rule="nonzero"/></g></svg>