<svg xmlns="http://www.w3.org/2000/svg" xmlns:xlink="http://www.w3.org/1999/xlink" width="1024" zoomAndPan="magnify" viewBox="0 0 768 767.999994" height="1024" preserveAspectRatio="xMidYMid meet" version="1.0"><path fill="#ffffff" d="M 519.996094 621.910156 C 505.289062 607.253906 486.769531 597.640625 466.316406 594.128906 C 441.867188 589.914062 419.265625 579.46875 400.347656 563.710938 C 410.089844 553.96875 405.570312 558.488281 566.476562 397.628906 C 582.40625 416.675781 592.855469 439.28125 596.847656 463.597656 C 600.402344 484.050781 609.972656 502.617188 624.675781 517.273438 L 649.167969 541.765625 L 544.484375 646.445312 Z M 301.722656 594.128906 C 281.269531 597.640625 262.746094 607.253906 248.042969 621.910156 L 223.550781 646.445312 L 118.871094 541.765625 L 143.363281 517.273438 C 158.066406 502.570312 167.679688 484.003906 171.191406 463.597656 C 176.105469 434.804688 189.667969 408.644531 210.296875 387.972656 L 310.457031 287.855469 L 310.5 287.8125 C 317.699219 280.613281 330.207031 280.613281 337.449219 287.855469 C 344.867188 295.273438 344.867188 307.386719 337.40625 314.804688 L 312.652344 339.601562 C 308.261719 343.949219 308.261719 351.101562 312.652344 355.492188 C 317.042969 359.882812 324.152344 359.882812 328.539062 355.492188 C 341.882812 342.148438 428.042969 255.945312 424.488281 259.5 C 429.796875 254.234375 438.355469 254.234375 443.667969 259.5 C 448.933594 264.769531 448.933594 273.328125 443.667969 278.636719 L 443.625 278.636719 L 347.675781 374.585938 C 343.289062 378.972656 343.289062 386.085938 347.675781 390.472656 C 352.066406 394.863281 359.175781 394.863281 363.566406 390.472656 C 364.75 389.332031 462.320312 291.71875 476.671875 277.367188 C 481.808594 272.230469 490.632812 272.273438 495.808594 277.367188 C 501.03125 282.632812 501.03125 291.234375 495.808594 296.503906 C 466.972656 325.292969 398.460938 393.808594 382.703125 409.609375 C 378.269531 414 378.269531 421.109375 382.703125 425.5 C 387.089844 429.886719 394.203125 429.886719 398.546875 425.5 L 494.539062 329.550781 L 494.539062 329.507812 C 499.671875 324.417969 508.496094 324.375 513.628906 329.550781 C 518.941406 334.773438 518.941406 343.378906 513.628906 348.644531 C 513.628906 348.644531 414.128906 448.191406 417.683594 444.636719 C 413.292969 449.023438 413.292969 456.089844 417.683594 460.480469 C 422.074219 464.914062 429.183594 464.914062 433.574219 460.480469 L 512.445312 381.605469 C 517.753906 376.429688 526.269531 376.429688 531.539062 381.652344 C 536.804688 386.917969 536.804688 395.476562 531.539062 400.742188 L 531.539062 400.789062 L 531.492188 400.789062 C 373.265625 558.929688 360.316406 584.035156 301.722656 594.128906 Z M 143.40625 245.324219 L 118.871094 220.832031 L 223.550781 116.152344 L 248.042969 140.6875 C 262.746094 155.347656 281.269531 164.960938 301.8125 168.472656 C 326.082031 172.507812 348.644531 182.957031 367.691406 198.84375 C 248.132812 318.402344 368.789062 197.746094 201.5625 364.929688 C 185.851562 346.054688 175.402344 323.453125 171.191406 299.003906 C 167.679688 278.550781 158.066406 260.027344 143.40625 245.324219 Z M 466.316406 168.472656 C 486.769531 164.960938 505.289062 155.347656 519.996094 140.6875 L 544.484375 116.152344 L 649.167969 220.832031 L 624.632812 245.324219 C 609.972656 260.027344 600.359375 278.550781 596.847656 299.003906 C 591.054688 332.710938 575.78125 355.976562 555.0625 377.21875 C 553.351562 373.046875 550.804688 369.140625 547.425781 365.761719 C 543.738281 362.121094 539.480469 359.398438 534.917969 357.644531 C 543.257812 343.816406 541.457031 325.558594 529.5625 313.621094 C 525.917969 310.019531 521.707031 307.253906 517.097656 305.5 C 525.394531 291.675781 523.59375 273.414062 511.65625 261.476562 C 500.15625 249.933594 481.238281 247.871094 467.675781 256.078125 C 465.921875 251.558594 463.199219 247.300781 459.554688 243.613281 C 445.511719 229.566406 422.6875 229.566406 408.640625 243.613281 L 363.523438 288.734375 C 361.589844 282.589844 358.210938 276.796875 353.339844 271.96875 C 348.511719 267.140625 342.542969 263.980469 336.175781 262.089844 L 390.691406 207.578125 C 411.539062 186.773438 437.652344 173.253906 466.316406 168.472656 Z M 668.214844 522.71875 L 665.054688 525.878906 L 640.5625 501.386719 C 629.195312 490.019531 621.734375 475.621094 619.011719 459.820312 C 614.230469 430.808594 601.5 403.859375 582.101562 381.34375 C 601.28125 359.003906 613.964844 332.097656 618.96875 302.824219 C 621.734375 286.976562 629.195312 272.582031 640.5625 261.214844 L 665.054688 236.722656 L 668.214844 239.882812 C 670.410156 242.078125 673.261719 243.175781 676.160156 243.175781 C 679.054688 243.175781 681.910156 242.078125 684.105469 239.882812 C 688.492188 235.492188 688.492188 228.382812 684.105469 223.992188 C 682.960938 222.851562 671.859375 211.75 673 212.890625 L 541.324219 81.214844 C 536.9375 76.828125 529.824219 76.828125 525.4375 81.214844 C 521.046875 85.605469 521.046875 92.714844 525.4375 97.105469 L 528.597656 100.265625 L 504.105469 124.753906 C 492.738281 136.125 478.339844 143.585938 462.539062 146.304688 C 433.398438 151.179688 406.449219 163.863281 383.976562 183.21875 C 361.503906 163.90625 334.597656 151.179688 305.585938 146.304688 C 289.695312 143.585938 275.300781 136.125 263.933594 124.753906 L 239.441406 100.265625 L 242.601562 97.105469 C 246.992188 92.714844 246.992188 85.605469 242.601562 81.214844 C 238.210938 76.828125 231.101562 76.828125 226.710938 81.214844 L 215.609375 92.320312 C 214.421875 93.460938 82.792969 225.136719 83.933594 223.992188 C 79.546875 228.382812 79.546875 235.492188 83.933594 239.882812 C 86.128906 242.078125 88.980469 243.175781 91.878906 243.175781 C 94.777344 243.175781 97.628906 242.078125 99.824219 239.882812 L 102.984375 236.722656 L 127.476562 261.214844 C 138.84375 272.582031 146.304688 286.976562 149.070312 302.824219 C 154.074219 332.054688 166.800781 358.914062 185.9375 381.257812 C 166.757812 403.597656 154.074219 430.503906 149.023438 459.777344 C 146.304688 475.621094 138.84375 490.019531 127.476562 501.386719 L 102.984375 525.878906 L 99.824219 522.71875 C 95.433594 518.328125 88.324219 518.328125 83.933594 522.71875 C 79.546875 527.105469 79.546875 534.21875 83.933594 538.605469 C 85.074219 539.746094 96.179688 550.851562 95.039062 549.710938 C 107.371094 562.042969 206.039062 660.710938 226.710938 681.382812 C 231.101562 685.773438 238.210938 685.773438 242.601562 681.382812 C 246.992188 676.996094 246.992188 669.886719 242.601562 665.496094 L 239.441406 662.335938 L 263.933594 637.84375 C 275.300781 626.433594 289.695312 619.015625 305.542969 616.25 C 334.816406 611.246094 361.722656 598.5625 384.0625 579.335938 C 406.402344 598.519531 433.265625 611.246094 462.496094 616.25 C 478.339844 619.015625 492.738281 626.433594 504.105469 637.84375 L 528.597656 662.335938 L 525.4375 665.496094 C 521.046875 669.886719 521.046875 676.996094 525.4375 681.382812 C 529.824219 685.773438 536.9375 685.773438 541.324219 681.382812 C 602.859375 619.847656 685.992188 536.71875 684.105469 538.605469 C 688.492188 534.21875 688.492188 527.105469 684.105469 522.71875 C 679.714844 518.328125 672.605469 518.328125 668.214844 522.71875 " fill-opacity="1" fill-rule="nonzero"/></svg>