<svg xmlns="http://www.w3.org/2000/svg" xmlns:xlink="http://www.w3.org/1999/xlink" width="1080" zoomAndPan="magnify" viewBox="0 0 810 1439.999935" height="1920" preserveAspectRatio="xMidYMid meet" version="1.0"><defs><g/><clipPath id="aac283594f"><path d="M 132.375 447.375 L 677.625 447.375 L 677.625 992.625 L 132.375 992.625 Z M 132.375 447.375 " clip-rule="nonzero"/></clipPath></defs><g clip-path="url(#aac283594f)"><path fill="#ffffff" d="M 405 992.625 C 254.382812 992.625 132.375 869.773438 132.375 720 C 132.375 570.222656 254.382812 447.375 405 447.375 C 555.617188 447.375 677.625 569.382812 677.625 720 C 677.625 870.617188 554.773438 992.625 405 992.625 Z M 405 464.203125 C 263.636719 464.203125 149.203125 578.636719 149.203125 720 C 149.203125 861.359375 263.636719 975.796875 405 975.796875 C 546.359375 975.796875 660.796875 861.359375 660.796875 720 C 660.796875 578.636719 545.519531 464.203125 405 464.203125 Z M 405 464.203125 " fill-opacity="1" fill-rule="nonzero"/></g><g fill="#ffffff" fill-opacity="1"><g transform="translate(299.601555, 777.621008)"><g><path d="M 13 -134.996094 L 47.398438 -134.996094 L 47.398438 31.398438 L 13 31.398438 Z M 13 -134.996094 "/></g></g></g><g fill="#ffffff" fill-opacity="1"><g transform="translate(359.999953, 777.621008)"><g><path d="M 10.800781 -134.996094 L 101.199219 -134.996094 C 113.195312 -134.996094 122.796875 -132.195312 129.597656 -126.796875 C 136.195312 -121.195312 139.597656 -112.398438 139.597656 -100.597656 L 139.597656 -3 C 139.597656 8.800781 136.195312 17.597656 129.597656 23.199219 C 122.796875 28.597656 113.195312 31.398438 101.199219 31.398438 L 10.800781 31.398438 Z M 45.199219 -107.398438 L 45.199219 3.800781 L 93.996094 3.800781 C 101.398438 3.800781 105.199219 0 105.199219 -7.398438 L 105.199219 -96.199219 C 105.199219 -103.597656 101.398438 -107.398438 93.996094 -107.398438 Z M 45.199219 -107.398438 "/></g></g></g></svg>