<svg xmlns="http://www.w3.org/2000/svg" xmlns:xlink="http://www.w3.org/1999/xlink" width="1024" zoomAndPan="magnify" viewBox="0 0 768 767.999994" height="1024" preserveAspectRatio="xMidYMid meet" version="1.0"><defs><clipPath id="6ee8ffacce"><path d="M 32 111.414062 L 736 111.414062 L 736 656.664062 L 32 656.664062 Z M 32 111.414062 " clip-rule="nonzero"/></clipPath></defs><g clip-path="url(#6ee8ffacce)"><path fill="#ffffff" d="M 243.179688 527.519531 C 249.613281 494.292969 263.789062 463.875 283.835938 438.140625 C 260.980469 415.28125 229.378906 401.164062 194.53125 401.164062 C 124.769531 401.164062 68.1875 457.753906 68.1875 527.519531 Z M 194.53125 370.996094 C 235.125 370.996094 268.035156 338.078125 268.035156 297.417969 C 268.035156 256.820312 235.125 223.902344 194.53125 223.902344 C 153.9375 223.902344 121.023438 256.820312 121.023438 297.417969 C 121.023438 338.078125 153.9375 370.996094 194.53125 370.996094 Z M 449.898438 350.882812 C 506.167969 350.882812 551.695312 305.351562 551.695312 249.136719 C 551.695312 192.921875 506.167969 147.328125 449.898438 147.328125 C 393.691406 147.328125 348.164062 192.921875 348.164062 249.136719 C 348.164062 305.351562 393.753906 350.882812 449.898438 350.882812 Z M 494.050781 603.347656 L 275.15625 603.347656 C 255.296875 603.347656 239.246094 587.292969 239.246094 567.433594 C 239.246094 566.121094 239.371094 564.746094 239.371094 563.433594 L 68.1875 563.433594 C 48.328125 563.433594 32.277344 547.320312 32.277344 527.519531 C 32.277344 463.25 69.875 407.535156 124.269531 381.300781 C 100.289062 361.191406 85.113281 331.085938 85.113281 297.480469 C 85.113281 237.082031 134.199219 187.988281 194.53125 187.988281 C 254.859375 187.988281 303.945312 237.082031 303.945312 297.480469 C 303.945312 331.085938 288.769531 361.191406 264.789062 381.300781 C 280.902344 389.046875 295.515625 399.476562 308.132812 411.90625 C 329.050781 392.792969 353.722656 377.804688 381.074219 368.308594 C 339.980469 344.449219 312.316406 299.980469 312.316406 249.136719 C 312.316406 173.246094 374.019531 111.476562 449.898438 111.476562 C 525.839844 111.476562 587.542969 173.246094 587.542969 249.136719 C 587.542969 299.980469 559.941406 344.449219 518.785156 368.308594 C 541.453125 376.179688 562.375 387.921875 580.738281 402.601562 C 578.300781 404.472656 575.988281 406.535156 573.679688 408.785156 C 567.308594 415.21875 562.3125 422.648438 558.753906 430.707031 C 528.839844 406.910156 491.054688 392.667969 449.898438 392.667969 C 403.871094 392.667969 362.027344 410.46875 330.800781 439.640625 C 321.558594 448.195312 313.253906 457.816406 306.070312 468.246094 C 293.828125 485.921875 284.773438 505.972656 279.714844 527.519531 C 277.03125 539.074219 275.53125 551.066406 275.21875 563.433594 C 275.21875 564.808594 275.09375 566.121094 275.09375 567.496094 L 469.382812 567.496094 C 473.816406 581.796875 482.5 594.226562 494.050781 603.347656 Z M 735.742188 547.257812 C 735.742188 553.941406 733.183594 560.25 728.4375 565.058594 C 723.628906 569.867188 717.257812 572.492188 710.386719 572.492188 L 651.058594 572.242188 L 651.308594 631.453125 C 651.371094 638.324219 648.746094 644.757812 643.9375 649.566406 C 639.191406 654.3125 632.945312 657 626.203125 657 L 626.140625 657 C 612.273438 656.875 600.972656 645.445312 600.847656 631.515625 L 600.535156 571.992188 L 539.207031 571.742188 C 525.277344 571.617188 513.789062 560.375 513.726562 546.507812 C 513.726562 539.761719 516.347656 533.453125 521.03125 528.707031 C 525.839844 523.835938 532.273438 521.210938 539.144531 521.210938 L 600.347656 521.460938 L 600.035156 460.375 C 600.035156 453.503906 602.59375 447.070312 607.402344 442.261719 C 612.148438 437.515625 618.457031 434.890625 625.140625 434.890625 C 639.128906 434.953125 650.433594 446.324219 650.496094 460.375 L 650.808594 521.710938 L 710.261719 522.023438 C 724.191406 522.023438 735.617188 533.390625 735.742188 547.257812 " fill-opacity="1" fill-rule="nonzero"/></g></svg>