<svg xmlns="http://www.w3.org/2000/svg" xmlns:xlink="http://www.w3.org/1999/xlink" width="1024" zoomAndPan="magnify" viewBox="0 0 768 767.999994" height="1024" preserveAspectRatio="xMidYMid meet" version="1.0"><defs><clipPath id="4ff876b741"><path d="M 95 150 L 673 150 L 673 684.023438 L 95 684.023438 Z M 95 150 " clip-rule="nonzero"/></clipPath><clipPath id="2a83e05aed"><path d="M 184 84.023438 L 229 84.023438 L 229 196 L 184 196 Z M 184 84.023438 " clip-rule="nonzero"/></clipPath><clipPath id="b304e77cec"><path d="M 539 84.023438 L 585 84.023438 L 585 196 L 539 196 Z M 539 84.023438 " clip-rule="nonzero"/></clipPath></defs><g clip-path="url(#4ff876b741)"><path fill="#ffffff" d="M 650.753906 684.023438 L 117.363281 684.023438 C 116.636719 684.023438 115.910156 683.988281 115.183594 683.917969 C 114.460938 683.847656 113.742188 683.738281 113.027344 683.597656 C 112.3125 683.457031 111.609375 683.28125 110.914062 683.066406 C 110.214844 682.855469 109.53125 682.613281 108.859375 682.332031 C 108.1875 682.054688 107.527344 681.746094 106.886719 681.402344 C 106.246094 681.058594 105.621094 680.683594 105.015625 680.28125 C 104.410156 679.875 103.828125 679.441406 103.265625 678.980469 C 102.703125 678.519531 102.164062 678.03125 101.648438 677.515625 C 101.132812 677 100.644531 676.464844 100.183594 675.902344 C 99.722656 675.335938 99.289062 674.753906 98.882812 674.148438 C 98.480469 673.542969 98.105469 672.921875 97.761719 672.277344 C 97.421875 671.636719 97.109375 670.980469 96.832031 670.308594 C 96.550781 669.632812 96.308594 668.949219 96.097656 668.253906 C 95.882812 667.558594 95.707031 666.851562 95.566406 666.136719 C 95.425781 665.425781 95.316406 664.707031 95.246094 663.980469 C 95.175781 663.257812 95.140625 662.53125 95.140625 661.804688 L 95.140625 172.914062 C 95.140625 172.1875 95.175781 171.460938 95.246094 170.734375 C 95.316406 170.011719 95.425781 169.292969 95.566406 168.578125 C 95.707031 167.863281 95.882812 167.160156 96.097656 166.464844 C 96.308594 165.765625 96.550781 165.082031 96.832031 164.410156 C 97.109375 163.738281 97.421875 163.082031 97.761719 162.4375 C 98.105469 161.796875 98.480469 161.171875 98.882812 160.566406 C 99.289062 159.960938 99.722656 159.378906 100.183594 158.816406 C 100.644531 158.253906 101.132812 157.714844 101.648438 157.199219 C 102.164062 156.6875 102.703125 156.199219 103.265625 155.734375 C 103.828125 155.273438 104.410156 154.839844 105.015625 154.4375 C 105.621094 154.03125 106.246094 153.660156 106.886719 153.316406 C 107.527344 152.972656 108.1875 152.660156 108.859375 152.382812 C 109.53125 152.105469 110.214844 151.859375 110.914062 151.648438 C 111.609375 151.4375 112.3125 151.261719 113.027344 151.117188 C 113.742188 150.976562 114.460938 150.871094 115.183594 150.796875 C 115.910156 150.726562 116.636719 150.691406 117.363281 150.691406 L 650.753906 150.691406 C 651.480469 150.691406 652.207031 150.726562 652.929688 150.796875 C 653.65625 150.871094 654.375 150.976562 655.089844 151.117188 C 655.800781 151.261719 656.507812 151.4375 657.203125 151.648438 C 657.902344 151.859375 658.585938 152.105469 659.257812 152.382812 C 659.929688 152.660156 660.585938 152.972656 661.230469 153.316406 C 661.871094 153.660156 662.496094 154.03125 663.101562 154.4375 C 663.707031 154.839844 664.289062 155.273438 664.851562 155.734375 C 665.414062 156.199219 665.953125 156.6875 666.46875 157.199219 C 666.984375 157.714844 667.472656 158.253906 667.933594 158.816406 C 668.394531 159.378906 668.828125 159.960938 669.230469 160.566406 C 669.636719 161.171875 670.011719 161.796875 670.351562 162.4375 C 670.695312 163.082031 671.007812 163.738281 671.285156 164.410156 C 671.5625 165.082031 671.808594 165.765625 672.019531 166.464844 C 672.230469 167.160156 672.410156 167.863281 672.550781 168.578125 C 672.691406 169.292969 672.800781 170.011719 672.871094 170.734375 C 672.941406 171.460938 672.976562 172.1875 672.976562 172.914062 L 672.976562 661.804688 C 672.976562 662.53125 672.941406 663.257812 672.871094 663.980469 C 672.800781 664.707031 672.691406 665.425781 672.550781 666.136719 C 672.410156 666.851562 672.230469 667.558594 672.019531 668.253906 C 671.808594 668.949219 671.5625 669.632812 671.285156 670.308594 C 671.007812 670.980469 670.695312 671.636719 670.351562 672.277344 C 670.011719 672.921875 669.636719 673.542969 669.230469 674.148438 C 668.828125 674.753906 668.394531 675.335938 667.933594 675.902344 C 667.472656 676.464844 666.984375 677 666.46875 677.515625 C 665.953125 678.03125 665.414062 678.519531 664.851562 678.980469 C 664.289062 679.441406 663.707031 679.875 663.101562 680.28125 C 662.496094 680.683594 661.871094 681.058594 661.230469 681.402344 C 660.585938 681.746094 659.929688 682.054688 659.257812 682.332031 C 658.585938 682.613281 657.902344 682.855469 657.203125 683.066406 C 656.507812 683.28125 655.800781 683.457031 655.089844 683.597656 C 654.375 683.738281 653.65625 683.847656 652.929688 683.917969 C 652.207031 683.988281 651.480469 684.023438 650.753906 684.023438 Z M 139.589844 639.582031 L 628.527344 639.582031 L 628.527344 195.136719 L 139.589844 195.136719 Z M 139.589844 639.582031 " fill-opacity="1" fill-rule="nonzero"/></g><g clip-path="url(#2a83e05aed)"><path fill="#ffffff" d="M 206.261719 195.136719 C 205.535156 195.136719 204.808594 195.101562 204.082031 195.027344 C 203.359375 194.957031 202.640625 194.851562 201.925781 194.710938 C 201.210938 194.566406 200.507812 194.390625 199.808594 194.179688 C 199.113281 193.96875 198.429688 193.722656 197.757812 193.445312 C 197.085938 193.167969 196.425781 192.855469 195.785156 192.511719 C 195.144531 192.167969 194.519531 191.796875 193.914062 191.390625 C 193.308594 190.988281 192.726562 190.554688 192.164062 190.09375 C 191.601562 189.628906 191.0625 189.140625 190.546875 188.628906 C 190.03125 188.113281 189.542969 187.574219 189.082031 187.011719 C 188.621094 186.449219 188.1875 185.863281 187.78125 185.261719 C 187.378906 184.65625 187.003906 184.03125 186.660156 183.390625 C 186.316406 182.746094 186.007812 182.089844 185.730469 181.417969 C 185.449219 180.746094 185.207031 180.0625 184.996094 179.363281 C 184.78125 178.667969 184.605469 177.964844 184.464844 177.25 C 184.320312 176.535156 184.214844 175.816406 184.144531 175.09375 C 184.074219 174.367188 184.039062 173.640625 184.039062 172.914062 L 184.039062 106.246094 C 184.039062 105.519531 184.074219 104.792969 184.144531 104.070312 C 184.214844 103.34375 184.320312 102.625 184.464844 101.910156 C 184.605469 101.199219 184.78125 100.492188 184.996094 99.796875 C 185.207031 99.101562 185.449219 98.414062 185.730469 97.742188 C 186.007812 97.070312 186.316406 96.414062 186.660156 95.773438 C 187.003906 95.128906 187.378906 94.507812 187.78125 93.902344 C 188.1875 93.296875 188.621094 92.710938 189.082031 92.148438 C 189.542969 91.585938 190.03125 91.046875 190.546875 90.535156 C 191.0625 90.019531 191.601562 89.53125 192.164062 89.070312 C 192.726562 88.609375 193.308594 88.175781 193.914062 87.769531 C 194.519531 87.367188 195.144531 86.992188 195.785156 86.648438 C 196.425781 86.304688 197.085938 85.996094 197.757812 85.714844 C 198.429688 85.4375 199.113281 85.191406 199.808594 84.980469 C 200.507812 84.769531 201.210938 84.59375 201.925781 84.453125 C 202.640625 84.308594 203.359375 84.203125 204.082031 84.132812 C 204.808594 84.0625 205.535156 84.023438 206.261719 84.023438 C 206.988281 84.023438 207.714844 84.0625 208.441406 84.132812 C 209.164062 84.203125 209.882812 84.308594 210.597656 84.453125 C 211.3125 84.59375 212.015625 84.769531 212.714844 84.980469 C 213.410156 85.191406 214.09375 85.4375 214.765625 85.714844 C 215.4375 85.996094 216.097656 86.304688 216.738281 86.648438 C 217.378906 86.992188 218.003906 87.367188 218.609375 87.769531 C 219.214844 88.175781 219.796875 88.609375 220.359375 89.070312 C 220.921875 89.53125 221.460938 90.019531 221.976562 90.535156 C 222.492188 91.046875 222.980469 91.585938 223.441406 92.148438 C 223.902344 92.710938 224.335938 93.296875 224.742188 93.902344 C 225.144531 94.507812 225.519531 95.128906 225.863281 95.773438 C 226.207031 96.414062 226.515625 97.070312 226.792969 97.742188 C 227.074219 98.414062 227.316406 99.101562 227.53125 99.796875 C 227.742188 100.492188 227.917969 101.199219 228.058594 101.910156 C 228.203125 102.625 228.308594 103.34375 228.378906 104.070312 C 228.449219 104.792969 228.488281 105.519531 228.488281 106.246094 L 228.488281 172.914062 C 228.488281 173.640625 228.449219 174.367188 228.378906 175.09375 C 228.308594 175.816406 228.203125 176.535156 228.058594 177.25 C 227.917969 177.964844 227.742188 178.667969 227.53125 179.363281 C 227.316406 180.0625 227.074219 180.746094 226.792969 181.417969 C 226.515625 182.089844 226.207031 182.746094 225.863281 183.390625 C 225.519531 184.03125 225.144531 184.65625 224.742188 185.261719 C 224.335938 185.863281 223.902344 186.449219 223.441406 187.011719 C 222.980469 187.574219 222.492188 188.113281 221.976562 188.628906 C 221.460938 189.140625 220.921875 189.628906 220.359375 190.09375 C 219.796875 190.554688 219.214844 190.988281 218.609375 191.390625 C 218.003906 191.796875 217.378906 192.167969 216.738281 192.511719 C 216.097656 192.855469 215.4375 193.167969 214.765625 193.445312 C 214.09375 193.722656 213.410156 193.96875 212.714844 194.179688 C 212.015625 194.390625 211.3125 194.566406 210.597656 194.710938 C 209.882812 194.851562 209.164062 194.957031 208.441406 195.027344 C 207.714844 195.101562 206.988281 195.136719 206.261719 195.136719 Z M 206.261719 195.136719 " fill-opacity="1" fill-rule="nonzero"/></g><g clip-path="url(#b304e77cec)"><path fill="#ffffff" d="M 561.855469 195.136719 C 561.125 195.136719 560.402344 195.101562 559.675781 195.027344 C 558.953125 194.957031 558.234375 194.851562 557.519531 194.710938 C 556.804688 194.566406 556.101562 194.390625 555.402344 194.179688 C 554.707031 193.96875 554.023438 193.722656 553.351562 193.445312 C 552.675781 193.167969 552.019531 192.855469 551.378906 192.511719 C 550.734375 192.167969 550.113281 191.796875 549.507812 191.390625 C 548.902344 190.988281 548.316406 190.554688 547.753906 190.09375 C 547.191406 189.628906 546.652344 189.140625 546.140625 188.628906 C 545.625 188.113281 545.136719 187.574219 544.675781 187.011719 C 544.214844 186.449219 543.78125 185.863281 543.375 185.261719 C 542.972656 184.65625 542.597656 184.03125 542.253906 183.390625 C 541.910156 182.746094 541.601562 182.089844 541.320312 181.417969 C 541.042969 180.746094 540.796875 180.0625 540.585938 179.363281 C 540.375 178.667969 540.199219 177.964844 540.058594 177.25 C 539.914062 176.535156 539.808594 175.816406 539.738281 175.09375 C 539.664062 174.367188 539.628906 173.640625 539.628906 172.914062 L 539.628906 106.246094 C 539.628906 105.519531 539.664062 104.792969 539.738281 104.070312 C 539.808594 103.34375 539.914062 102.625 540.058594 101.910156 C 540.199219 101.199219 540.375 100.492188 540.585938 99.796875 C 540.796875 99.101562 541.042969 98.414062 541.320312 97.742188 C 541.601562 97.070312 541.910156 96.414062 542.253906 95.773438 C 542.597656 95.128906 542.972656 94.507812 543.375 93.902344 C 543.78125 93.296875 544.214844 92.710938 544.675781 92.148438 C 545.136719 91.585938 545.625 91.046875 546.140625 90.535156 C 546.652344 90.019531 547.191406 89.53125 547.753906 89.070312 C 548.316406 88.609375 548.902344 88.175781 549.507812 87.769531 C 550.113281 87.367188 550.734375 86.992188 551.378906 86.648438 C 552.019531 86.304688 552.675781 85.996094 553.351562 85.714844 C 554.023438 85.4375 554.707031 85.191406 555.402344 84.980469 C 556.101562 84.769531 556.804688 84.59375 557.519531 84.453125 C 558.234375 84.308594 558.953125 84.203125 559.675781 84.132812 C 560.402344 84.0625 561.125 84.023438 561.855469 84.023438 C 562.582031 84.023438 563.308594 84.0625 564.03125 84.132812 C 564.757812 84.203125 565.476562 84.308594 566.191406 84.453125 C 566.90625 84.59375 567.609375 84.769531 568.304688 84.980469 C 569.003906 85.191406 569.6875 85.4375 570.359375 85.714844 C 571.03125 85.996094 571.6875 86.304688 572.332031 86.648438 C 572.972656 86.992188 573.597656 87.367188 574.203125 87.769531 C 574.808594 88.175781 575.390625 88.609375 575.953125 89.070312 C 576.515625 89.53125 577.054688 90.019531 577.570312 90.535156 C 578.085938 91.046875 578.574219 91.585938 579.035156 92.148438 C 579.496094 92.710938 579.929688 93.296875 580.332031 93.902344 C 580.738281 94.507812 581.113281 95.128906 581.453125 95.773438 C 581.796875 96.414062 582.109375 97.070312 582.386719 97.742188 C 582.664062 98.414062 582.910156 99.101562 583.121094 99.796875 C 583.332031 100.492188 583.511719 101.199219 583.652344 101.910156 C 583.792969 102.625 583.902344 103.34375 583.972656 104.070312 C 584.042969 104.792969 584.078125 105.519531 584.078125 106.246094 L 584.078125 172.914062 C 584.078125 173.640625 584.042969 174.367188 583.972656 175.09375 C 583.902344 175.816406 583.792969 176.535156 583.652344 177.25 C 583.511719 177.964844 583.332031 178.667969 583.121094 179.363281 C 582.910156 180.0625 582.664062 180.746094 582.386719 181.417969 C 582.109375 182.089844 581.796875 182.746094 581.453125 183.390625 C 581.113281 184.03125 580.738281 184.65625 580.332031 185.261719 C 579.929688 185.863281 579.496094 186.449219 579.035156 187.011719 C 578.574219 187.574219 578.085938 188.113281 577.570312 188.628906 C 577.054688 189.140625 576.515625 189.628906 575.953125 190.09375 C 575.390625 190.554688 574.808594 190.988281 574.203125 191.390625 C 573.597656 191.796875 572.972656 192.167969 572.332031 192.511719 C 571.6875 192.855469 571.03125 193.167969 570.359375 193.445312 C 569.6875 193.722656 569.003906 193.96875 568.304688 194.179688 C 567.609375 194.390625 566.90625 194.566406 566.191406 194.710938 C 565.476562 194.851562 564.757812 194.957031 564.03125 195.027344 C 563.308594 195.101562 562.582031 195.136719 561.855469 195.136719 Z M 561.855469 195.136719 " fill-opacity="1" fill-rule="nonzero"/></g><path fill="#ffffff" d="M 228.488281 328.46875 L 272.933594 328.46875 L 272.933594 372.914062 L 228.488281 372.914062 Z M 228.488281 328.46875 " fill-opacity="1" fill-rule="nonzero"/><path fill="#ffffff" d="M 361.832031 328.46875 L 406.28125 328.46875 L 406.28125 372.914062 L 361.832031 372.914062 Z M 361.832031 328.46875 " fill-opacity="1" fill-rule="nonzero"/><path fill="#ffffff" d="M 495.179688 328.46875 L 539.628906 328.46875 L 539.628906 372.914062 L 495.179688 372.914062 Z M 495.179688 328.46875 " fill-opacity="1" fill-rule="nonzero"/><path fill="#ffffff" d="M 228.488281 439.582031 L 272.933594 439.582031 L 272.933594 484.023438 L 228.488281 484.023438 Z M 228.488281 439.582031 " fill-opacity="1" fill-rule="nonzero"/><path fill="#ffffff" d="M 361.832031 439.582031 L 406.28125 439.582031 L 406.28125 484.023438 L 361.832031 484.023438 Z M 361.832031 439.582031 " fill-opacity="1" fill-rule="nonzero"/><path fill="#ffffff" d="M 495.179688 439.582031 L 539.628906 439.582031 L 539.628906 484.023438 L 495.179688 484.023438 Z M 495.179688 439.582031 " fill-opacity="1" fill-rule="nonzero"/><path fill="#ffffff" d="M 228.488281 550.691406 L 272.933594 550.691406 L 272.933594 595.136719 L 228.488281 595.136719 Z M 228.488281 550.691406 " fill-opacity="1" fill-rule="nonzero"/><path fill="#ffffff" d="M 361.832031 550.691406 L 406.28125 550.691406 L 406.28125 595.136719 L 361.832031 595.136719 Z M 361.832031 550.691406 " fill-opacity="1" fill-rule="nonzero"/><path fill="#ffffff" d="M 495.179688 550.691406 L 539.628906 550.691406 L 539.628906 595.136719 L 495.179688 595.136719 Z M 495.179688 550.691406 " fill-opacity="1" fill-rule="nonzero"/><path fill="#ffffff" d="M 650.753906 294.246094 L 117.363281 294.246094 C 116.636719 294.246094 115.910156 294.210938 115.183594 294.140625 C 114.460938 294.070312 113.742188 293.960938 113.027344 293.820312 C 112.3125 293.679688 111.609375 293.5 110.914062 293.289062 C 110.214844 293.078125 109.53125 292.835938 108.859375 292.554688 C 108.1875 292.277344 107.527344 291.964844 106.886719 291.625 C 106.246094 291.28125 105.621094 290.90625 105.015625 290.503906 C 104.410156 290.097656 103.828125 289.664062 103.265625 289.203125 C 102.703125 288.742188 102.164062 288.253906 101.648438 287.738281 C 101.132812 287.222656 100.644531 286.683594 100.183594 286.121094 C 99.722656 285.558594 99.289062 284.976562 98.882812 284.371094 C 98.480469 283.765625 98.105469 283.140625 97.761719 282.5 C 97.421875 281.859375 97.109375 281.203125 96.832031 280.527344 C 96.550781 279.855469 96.308594 279.171875 96.097656 278.476562 C 95.882812 277.78125 95.707031 277.074219 95.566406 276.359375 C 95.425781 275.648438 95.316406 274.925781 95.246094 274.203125 C 95.175781 273.480469 95.140625 272.753906 95.140625 272.023438 C 95.140625 271.296875 95.175781 270.570312 95.246094 269.847656 C 95.316406 269.121094 95.425781 268.402344 95.566406 267.691406 C 95.707031 266.976562 95.882812 266.269531 96.097656 265.574219 C 96.308594 264.878906 96.550781 264.195312 96.832031 263.519531 C 97.109375 262.847656 97.421875 262.191406 97.761719 261.550781 C 98.105469 260.90625 98.480469 260.285156 98.882812 259.679688 C 99.289062 259.074219 99.722656 258.488281 100.183594 257.925781 C 100.644531 257.363281 101.132812 256.828125 101.648438 256.3125 C 102.164062 255.796875 102.703125 255.308594 103.265625 254.847656 C 103.828125 254.386719 104.410156 253.953125 105.015625 253.546875 C 105.621094 253.144531 106.246094 252.769531 106.886719 252.425781 C 107.527344 252.082031 108.1875 251.773438 108.859375 251.496094 C 109.53125 251.214844 110.214844 250.972656 110.914062 250.757812 C 111.609375 250.546875 112.3125 250.371094 113.027344 250.230469 C 113.742188 250.085938 114.460938 249.980469 115.183594 249.910156 C 115.910156 249.839844 116.636719 249.804688 117.363281 249.804688 L 650.753906 249.804688 C 651.480469 249.804688 652.207031 249.839844 652.929688 249.910156 C 653.65625 249.980469 654.375 250.085938 655.089844 250.230469 C 655.800781 250.371094 656.507812 250.546875 657.203125 250.757812 C 657.902344 250.972656 658.585938 251.214844 659.257812 251.496094 C 659.929688 251.773438 660.585938 252.082031 661.230469 252.425781 C 661.871094 252.769531 662.496094 253.144531 663.101562 253.546875 C 663.707031 253.953125 664.289062 254.386719 664.851562 254.847656 C 665.414062 255.308594 665.953125 255.796875 666.46875 256.3125 C 666.984375 256.828125 667.472656 257.363281 667.933594 257.925781 C 668.394531 258.488281 668.828125 259.074219 669.230469 259.679688 C 669.636719 260.285156 670.011719 260.90625 670.351562 261.550781 C 670.695312 262.191406 671.007812 262.847656 671.285156 263.519531 C 671.5625 264.195312 671.808594 264.878906 672.019531 265.574219 C 672.230469 266.269531 672.410156 266.976562 672.550781 267.691406 C 672.691406 268.402344 672.800781 269.121094 672.871094 269.847656 C 672.941406 270.570312 672.976562 271.296875 672.976562 272.023438 C 672.976562 272.753906 672.941406 273.480469 672.871094 274.203125 C 672.800781 274.925781 672.691406 275.648438 672.550781 276.359375 C 672.410156 277.074219 672.230469 277.78125 672.019531 278.476562 C 671.808594 279.171875 671.5625 279.855469 671.285156 280.527344 C 671.007812 281.203125 670.695312 281.859375 670.351562 282.5 C 670.011719 283.140625 669.636719 283.765625 669.230469 284.371094 C 668.828125 284.976562 668.394531 285.558594 667.933594 286.121094 C 667.472656 286.683594 666.984375 287.222656 666.46875 287.738281 C 665.953125 288.253906 665.414062 288.742188 664.851562 289.203125 C 664.289062 289.664062 663.707031 290.097656 663.101562 290.503906 C 662.496094 290.90625 661.871094 291.28125 661.230469 291.625 C 660.585938 291.964844 659.929688 292.277344 659.257812 292.554688 C 658.585938 292.835938 657.902344 293.078125 657.203125 293.289062 C 656.507812 293.5 655.800781 293.679688 655.089844 293.820312 C 654.375 293.960938 653.65625 294.070312 652.929688 294.140625 C 652.207031 294.210938 651.480469 294.246094 650.753906 294.246094 Z M 650.753906 294.246094 " fill-opacity="1" fill-rule="nonzero"/></svg>