<svg xmlns="http://www.w3.org/2000/svg" xmlns:xlink="http://www.w3.org/1999/xlink" width="1080" zoomAndPan="magnify" viewBox="0 0 810 1439.999935" height="1920" preserveAspectRatio="xMidYMid meet" version="1.0"><defs><clipPath id="aaee0bcc9c"><path d="M 243.042969 540 L 566.953125 540 L 566.953125 899.992188 L 243.042969 899.992188 Z M 243.042969 540 " clip-rule="nonzero"/></clipPath><clipPath id="ab534c74b2"><path d="M 132.375 447.375 L 677.625 447.375 L 677.625 992.625 L 132.375 992.625 Z M 132.375 447.375 " clip-rule="nonzero"/></clipPath></defs><path fill="#fffffe" d="M 357.847656 785.074219 C 359.167969 758.519531 381.191406 737.320312 408.066406 737.320312 L 435.230469 737.320312 C 462.109375 737.320312 484.128906 758.519531 485.449219 785.074219 Z M 393.28125 683.28125 C 393.28125 667.640625 406.007812 654.914062 421.648438 654.914062 C 437.292969 654.914062 450.015625 667.640625 450.015625 683.28125 C 450.015625 698.921875 437.292969 711.648438 421.648438 711.648438 C 406.007812 711.648438 393.28125 698.921875 393.28125 683.28125 Z M 437.722656 722.941406 C 453.378906 716.574219 464.445312 701.195312 464.445312 683.28125 C 464.445312 659.683594 445.246094 640.488281 421.648438 640.488281 C 398.050781 640.488281 378.855469 659.683594 378.855469 683.28125 C 378.855469 701.195312 389.917969 716.574219 405.574219 722.941406 C 371.042969 724.257812 343.359375 752.757812 343.359375 787.601562 L 343.359375 792.289062 C 343.359375 796.269531 346.589844 799.5 350.574219 799.5 L 492.726562 799.5 C 496.710938 799.5 499.9375 796.269531 499.9375 792.289062 L 499.9375 787.601562 C 499.9375 752.757812 472.253906 724.257812 437.722656 722.941406 " fill-opacity="1" fill-rule="nonzero"/><path fill="#fffffe" d="M 421.648438 655.078125 C 406.097656 655.078125 393.445312 667.730469 393.445312 683.28125 C 393.445312 698.835938 406.097656 711.484375 421.648438 711.484375 C 437.203125 711.484375 449.855469 698.835938 449.855469 683.28125 C 449.855469 667.730469 437.203125 655.078125 421.648438 655.078125 Z M 421.648438 711.8125 C 405.917969 711.8125 393.117188 699.015625 393.117188 683.28125 C 393.117188 667.550781 405.917969 654.75 421.648438 654.75 C 437.382812 654.75 450.179688 667.550781 450.179688 683.28125 C 450.179688 699.015625 437.382812 711.8125 421.648438 711.8125 Z M 358.019531 784.910156 L 485.277344 784.910156 C 483.863281 758.304688 461.914062 737.484375 435.230469 737.484375 L 408.066406 737.484375 C 381.382812 737.484375 359.433594 758.304688 358.019531 784.910156 Z M 485.621094 785.238281 L 357.675781 785.238281 L 357.683594 785.066406 C 358.328125 772.152344 363.859375 760.097656 373.261719 751.121094 C 382.695312 742.117188 395.054688 737.160156 408.066406 737.160156 L 435.230469 737.160156 C 448.242188 737.160156 460.605469 742.117188 470.039062 751.121094 C 479.4375 760.097656 484.96875 772.152344 485.613281 785.066406 Z M 421.648438 640.652344 C 398.144531 640.652344 379.019531 659.773438 379.019531 683.28125 C 379.019531 700.707031 389.464844 716.214844 405.636719 722.792969 L 406.339844 723.078125 L 405.582031 723.105469 C 370.78125 724.429688 343.523438 752.761719 343.523438 787.601562 L 343.523438 792.289062 C 343.523438 796.175781 346.683594 799.339844 350.574219 799.339844 L 492.726562 799.339844 C 496.613281 799.339844 499.773438 796.175781 499.773438 792.289062 L 499.773438 787.601562 C 499.773438 752.761719 472.515625 724.429688 437.71875 723.105469 L 436.960938 723.078125 L 437.664062 722.792969 C 453.832031 716.214844 464.28125 700.707031 464.28125 683.28125 C 464.28125 659.773438 445.15625 640.652344 421.648438 640.652344 Z M 492.726562 799.664062 L 350.574219 799.664062 C 346.503906 799.664062 343.195312 796.355469 343.195312 792.289062 L 343.195312 787.601562 C 343.195312 770.738281 349.660156 754.75 361.398438 742.585938 C 372.9375 730.628906 388.335938 723.625 404.832031 722.8125 C 397.300781 719.597656 390.871094 714.328125 386.207031 707.535156 C 381.289062 700.371094 378.691406 691.984375 378.691406 683.28125 C 378.691406 659.59375 397.960938 640.324219 421.648438 640.324219 C 445.335938 640.324219 464.605469 659.59375 464.605469 683.28125 C 464.605469 691.984375 462.007812 700.371094 457.089844 707.535156 C 452.425781 714.328125 445.996094 719.597656 438.464844 722.8125 C 454.960938 723.625 470.359375 730.628906 481.898438 742.585938 C 493.636719 754.75 500.101562 770.738281 500.101562 787.601562 L 500.101562 792.289062 C 500.101562 796.355469 496.792969 799.664062 492.726562 799.664062 " fill-opacity="1" fill-rule="nonzero"/><path fill="#fffffe" d="M 552.363281 854.785156 C 552.363281 871.664062 538.632812 885.398438 521.753906 885.398438 L 321.546875 885.398438 C 304.664062 885.398438 290.933594 871.664062 290.933594 854.785156 L 290.933594 833.710938 L 317.019531 833.710938 C 321.003906 833.710938 324.234375 830.480469 324.234375 826.496094 C 324.234375 822.515625 321.003906 819.285156 317.019531 819.285156 L 290.933594 819.285156 L 290.933594 762.730469 L 317.019531 762.730469 C 321.003906 762.730469 324.234375 759.5 324.234375 755.515625 C 324.234375 751.53125 321.003906 748.300781 317.019531 748.300781 L 290.933594 748.300781 L 290.933594 692.0625 L 317.019531 692.0625 C 321.003906 692.0625 324.234375 688.832031 324.234375 684.851562 C 324.234375 680.863281 321.003906 677.636719 317.019531 677.636719 L 290.933594 677.636719 L 290.933594 621.464844 L 317.019531 621.464844 C 321.003906 621.464844 324.234375 618.234375 324.234375 614.25 C 324.234375 610.265625 321.003906 607.035156 317.019531 607.035156 L 290.933594 607.035156 L 290.933594 585.203125 C 290.933594 568.320312 304.664062 554.589844 321.546875 554.589844 L 521.753906 554.589844 C 538.632812 554.589844 552.363281 568.320312 552.363281 585.203125 Z M 521.753906 540.164062 L 321.546875 540.164062 C 296.710938 540.164062 276.507812 560.367188 276.507812 585.203125 L 276.507812 607.035156 L 250.417969 607.035156 C 246.433594 607.035156 243.207031 610.265625 243.207031 614.25 C 243.207031 618.234375 246.433594 621.464844 250.417969 621.464844 L 276.507812 621.464844 L 276.507812 677.636719 L 250.417969 677.636719 C 246.433594 677.636719 243.207031 680.863281 243.207031 684.851562 C 243.207031 688.832031 246.433594 692.0625 250.417969 692.0625 L 276.507812 692.0625 L 276.507812 748.300781 L 250.417969 748.300781 C 246.433594 748.300781 243.207031 751.53125 243.207031 755.515625 C 243.207031 759.5 246.433594 762.730469 250.417969 762.730469 L 276.507812 762.730469 L 276.507812 819.285156 L 250.417969 819.285156 C 246.433594 819.285156 243.207031 822.515625 243.207031 826.496094 C 243.207031 830.480469 246.433594 833.710938 250.417969 833.710938 L 276.507812 833.710938 L 276.507812 854.785156 C 276.507812 879.621094 296.710938 899.828125 321.546875 899.828125 L 521.753906 899.828125 C 546.585938 899.828125 566.792969 879.621094 566.792969 854.785156 L 566.792969 585.203125 C 566.792969 560.367188 546.585938 540.164062 521.753906 540.164062 " fill-opacity="1" fill-rule="nonzero"/><g clip-path="url(#aaee0bcc9c)"><path fill="#fffffe" d="M 291.097656 833.875 L 291.097656 854.785156 C 291.097656 871.578125 304.753906 885.234375 321.546875 885.234375 L 521.753906 885.234375 C 538.542969 885.234375 552.203125 871.578125 552.203125 854.785156 L 552.203125 585.203125 C 552.203125 568.414062 538.542969 554.753906 521.753906 554.753906 L 321.546875 554.753906 C 304.753906 554.753906 291.097656 568.414062 291.097656 585.203125 L 291.097656 606.875 L 317.019531 606.875 C 321.085938 606.875 324.398438 610.183594 324.398438 614.25 C 324.398438 618.320312 321.085938 621.628906 317.019531 621.628906 L 291.097656 621.628906 L 291.097656 677.472656 L 317.019531 677.472656 C 321.085938 677.472656 324.398438 680.78125 324.398438 684.851562 C 324.398438 688.917969 321.085938 692.226562 317.019531 692.226562 L 291.097656 692.226562 L 291.097656 748.140625 L 317.019531 748.140625 C 321.085938 748.140625 324.398438 751.449219 324.398438 755.515625 C 324.398438 759.582031 321.085938 762.890625 317.019531 762.890625 L 291.097656 762.890625 L 291.097656 819.121094 L 317.019531 819.121094 C 321.085938 819.121094 324.398438 822.429688 324.398438 826.496094 C 324.398438 830.566406 321.085938 833.875 317.019531 833.875 Z M 521.753906 885.5625 L 321.546875 885.5625 C 304.574219 885.5625 290.769531 871.757812 290.769531 854.785156 L 290.769531 833.546875 L 317.019531 833.546875 C 320.90625 833.546875 324.070312 830.382812 324.070312 826.496094 C 324.070312 822.609375 320.90625 819.449219 317.019531 819.449219 L 290.769531 819.449219 L 290.769531 762.566406 L 317.019531 762.566406 C 320.90625 762.566406 324.070312 759.402344 324.070312 755.515625 C 324.070312 751.628906 320.90625 748.464844 317.019531 748.464844 L 290.769531 748.464844 L 290.769531 691.898438 L 317.019531 691.898438 C 320.90625 691.898438 324.070312 688.734375 324.070312 684.851562 C 324.070312 680.960938 320.90625 677.800781 317.019531 677.800781 L 290.769531 677.800781 L 290.769531 621.300781 L 317.019531 621.300781 C 320.90625 621.300781 324.070312 618.136719 324.070312 614.25 C 324.070312 610.363281 320.90625 607.199219 317.019531 607.199219 L 290.769531 607.199219 L 290.769531 585.203125 C 290.769531 568.234375 304.574219 554.429688 321.546875 554.429688 L 521.753906 554.429688 C 538.722656 554.429688 552.527344 568.234375 552.527344 585.203125 L 552.527344 854.785156 C 552.527344 871.757812 538.722656 885.5625 521.753906 885.5625 Z M 250.417969 819.449219 C 246.53125 819.449219 243.371094 822.609375 243.371094 826.496094 C 243.371094 830.382812 246.53125 833.546875 250.417969 833.546875 L 276.671875 833.546875 L 276.671875 854.785156 C 276.671875 879.527344 296.800781 899.664062 321.546875 899.664062 L 521.753906 899.664062 C 546.496094 899.664062 566.628906 879.527344 566.628906 854.785156 L 566.628906 585.203125 C 566.628906 560.457031 546.496094 540.328125 521.753906 540.328125 L 321.546875 540.328125 C 296.800781 540.328125 276.671875 560.457031 276.671875 585.203125 L 276.671875 607.199219 L 250.417969 607.199219 C 246.53125 607.199219 243.371094 610.363281 243.371094 614.25 C 243.371094 618.136719 246.53125 621.300781 250.417969 621.300781 L 276.671875 621.300781 L 276.671875 677.800781 L 250.417969 677.800781 C 246.53125 677.800781 243.371094 680.960938 243.371094 684.851562 C 243.371094 688.734375 246.53125 691.898438 250.417969 691.898438 L 276.671875 691.898438 L 276.671875 748.464844 L 250.417969 748.464844 C 246.53125 748.464844 243.371094 751.628906 243.371094 755.515625 C 243.371094 759.402344 246.53125 762.566406 250.417969 762.566406 L 276.671875 762.566406 L 276.671875 819.449219 Z M 521.753906 899.992188 L 321.546875 899.992188 C 296.621094 899.992188 276.34375 879.710938 276.34375 854.785156 L 276.34375 833.875 L 250.417969 833.875 C 246.351562 833.875 243.042969 830.566406 243.042969 826.496094 C 243.042969 822.429688 246.351562 819.121094 250.417969 819.121094 L 276.34375 819.121094 L 276.34375 762.890625 L 250.417969 762.890625 C 246.351562 762.890625 243.042969 759.582031 243.042969 755.515625 C 243.042969 751.449219 246.351562 748.140625 250.417969 748.140625 L 276.34375 748.140625 L 276.34375 692.226562 L 250.417969 692.226562 C 246.351562 692.226562 243.042969 688.917969 243.042969 684.851562 C 243.042969 680.78125 246.351562 677.472656 250.417969 677.472656 L 276.34375 677.472656 L 276.34375 621.628906 L 250.417969 621.628906 C 246.351562 621.628906 243.042969 618.320312 243.042969 614.25 C 243.042969 610.183594 246.351562 606.875 250.417969 606.875 L 276.34375 606.875 L 276.34375 585.203125 C 276.34375 560.277344 296.621094 540 321.546875 540 L 521.753906 540 C 546.675781 540 566.957031 560.277344 566.957031 585.203125 L 566.957031 854.785156 C 566.957031 879.710938 546.675781 899.992188 521.753906 899.992188 " fill-opacity="1" fill-rule="nonzero"/></g><g clip-path="url(#ab534c74b2)"><path fill="#ffffff" d="M 405 992.625 C 254.382812 992.625 132.375 869.773438 132.375 720 C 132.375 570.222656 254.382812 447.375 405 447.375 C 555.617188 447.375 677.625 569.382812 677.625 720 C 677.625 870.617188 554.773438 992.625 405 992.625 Z M 405 464.203125 C 263.636719 464.203125 149.203125 578.636719 149.203125 720 C 149.203125 861.359375 263.636719 975.796875 405 975.796875 C 546.359375 975.796875 660.796875 861.359375 660.796875 720 C 660.796875 578.636719 545.519531 464.203125 405 464.203125 Z M 405 464.203125 " fill-opacity="1" fill-rule="nonzero"/></g></svg>