<svg xmlns="http://www.w3.org/2000/svg" xmlns:xlink="http://www.w3.org/1999/xlink" width="1024" zoomAndPan="magnify" viewBox="0 0 768 767.999994" height="1024" preserveAspectRatio="xMidYMid meet" version="1.0"><defs><clipPath id="049e54b80a"><path d="M 29.597656 201 L 718.847656 201 L 718.847656 577.855469 L 29.597656 577.855469 Z M 29.597656 201 " clip-rule="nonzero"/></clipPath></defs><g clip-path="url(#049e54b80a)"><path fill="#ffffff" d="M 263.496094 577.546875 C 259.304688 577.546875 257.375 574.742188 259.191406 571.28125 C 261.007812 567.820312 265.882812 565.015625 270.078125 565.015625 L 300.449219 565.015625 C 304.644531 565.015625 306.570312 567.820312 304.753906 571.28125 C 302.9375 574.742188 298.066406 577.546875 293.871094 577.546875 Z M 202.746094 577.546875 C 198.554688 577.546875 196.625 574.742188 198.445312 571.28125 C 200.261719 567.820312 205.132812 565.015625 209.328125 565.015625 L 239.703125 565.015625 C 243.894531 565.015625 245.824219 567.820312 244.003906 571.28125 C 242.1875 574.742188 237.316406 577.546875 233.121094 577.546875 Z M 142 577.546875 C 137.804688 577.546875 135.878906 574.742188 137.695312 571.28125 C 139.511719 567.820312 144.382812 565.015625 148.578125 565.015625 L 178.953125 565.015625 C 183.148438 565.015625 185.074219 567.820312 183.257812 571.28125 C 181.441406 574.742188 176.566406 577.546875 172.371094 577.546875 Z M 324.246094 577.546875 C 320.050781 577.546875 318.125 574.742188 319.941406 571.28125 C 321.757812 567.820312 326.632812 565.015625 330.824219 565.015625 L 361.199219 565.015625 C 365.394531 565.015625 367.320312 567.820312 365.503906 571.28125 C 363.6875 574.742188 358.8125 577.546875 354.621094 577.546875 Z M 387.425781 575.941406 C 382.933594 576.707031 379.972656 574.59375 380.816406 571.21875 C 381.65625 567.847656 385.980469 564.488281 390.472656 563.722656 C 400.234375 562.054688 410.230469 558.8125 419.820312 554.25 C 424.25 552.136719 428.75 552.652344 429.867188 555.394531 C 430.984375 558.136719 428.296875 562.070312 423.863281 564.179688 C 411.96875 569.84375 399.550781 573.867188 387.425781 575.941406 Z M 456.574219 543.027344 C 453.011719 546.089844 447.800781 547.261719 444.9375 545.652344 C 442.074219 544.039062 442.640625 540.25 446.203125 537.1875 C 453.867188 530.597656 460.136719 523.324219 464.59375 515.753906 C 466.628906 512.296875 471.597656 509.644531 475.6875 509.824219 C 479.78125 510.007812 481.449219 512.957031 479.417969 516.410156 C 473.886719 525.800781 466.09375 534.839844 456.574219 543.027344 Z M 488.355469 488.734375 C 488.246094 491.941406 484.453125 495.59375 479.886719 496.894531 C 475.316406 498.195312 471.699219 496.648438 471.808594 493.441406 C 472.046875 486.492188 470.125 480.234375 466.210938 475.089844 C 464.40625 472.714844 466.34375 468.75 470.542969 466.234375 C 474.742188 463.714844 479.609375 463.597656 481.414062 465.972656 C 486.265625 472.34375 488.648438 480.109375 488.355469 488.734375 Z M 460.136719 451.738281 C 463.535156 452.839844 463.808594 456.390625 460.753906 459.671875 C 457.695312 462.953125 452.464844 464.71875 449.066406 463.617188 C 443.644531 461.863281 437.449219 460.945312 430.652344 460.925781 L 422.558594 460.925781 C 418.367188 460.925781 416.4375 458.121094 418.257812 454.660156 C 420.074219 451.199219 424.945312 448.394531 429.140625 448.394531 L 437.257812 448.394531 C 445.710938 448.421875 453.402344 449.558594 460.136719 451.738281 Z M 398.984375 448.375 C 403.125 448.46875 404.917969 451.351562 402.984375 454.8125 C 401.054688 458.269531 396.132812 460.996094 391.988281 460.902344 C 380.695312 460.644531 370.875 458.320312 363.046875 454.148438 C 360.121094 452.589844 360.59375 448.820312 364.105469 445.730469 C 367.617188 442.640625 372.835938 441.402344 375.761719 442.960938 C 382.039062 446.304688 389.910156 448.167969 398.984375 448.375 Z M 362.332031 428.890625 C 363.492188 431.609375 360.855469 435.550781 356.433594 437.6875 C 352.015625 439.828125 347.488281 439.355469 346.324219 436.636719 C 343.195312 429.320312 342.695312 420.824219 344.941406 411.703125 C 345.769531 408.332031 350.085938 404.96875 354.582031 404.191406 C 359.074219 403.417969 362.046875 405.519531 361.214844 408.894531 C 359.417969 416.203125 359.816406 423.015625 362.332031 428.890625 Z M 372.929688 386.355469 C 370.25 389.734375 365.078125 391.867188 361.375 391.121094 C 357.667969 390.378906 356.839844 387.035156 359.515625 383.652344 C 366.761719 374.511719 376.109375 365.980469 386.867188 358.617188 C 390.867188 355.875 395.902344 355.371094 398.113281 357.484375 C 400.320312 359.597656 398.867188 363.535156 394.867188 366.273438 C 386.230469 372.1875 378.738281 379.027344 372.929688 386.355469 Z M 423.078125 352.023438 C 418.515625 353.605469 414.574219 352.394531 414.269531 349.320312 C 413.96875 346.242188 417.421875 342.464844 421.980469 340.882812 C 434.1875 336.644531 446.464844 334.25 458.0625 333.917969 C 462.316406 333.796875 464.414062 336.5 462.746094 339.960938 C 461.078125 343.417969 456.273438 346.320312 452.019531 346.441406 C 442.707031 346.707031 432.867188 348.625 423.078125 352.023438 Z M 482.542969 346.410156 C 478.351562 346.410156 476.425781 343.601562 478.242188 340.144531 C 480.058594 336.683594 484.929688 333.878906 489.125 333.878906 L 519.5 333.878906 C 523.691406 333.878906 525.621094 336.683594 523.804688 340.144531 C 521.988281 343.601562 517.113281 346.410156 512.917969 346.410156 Z M 545.972656 342.257812 C 541.449219 343.152344 538.328125 341.167969 539 337.828125 C 539.667969 334.484375 543.875 331.050781 548.398438 330.152344 L 567.691406 326.328125 C 572.214844 325.433594 575.335938 327.417969 574.667969 330.761719 C 573.996094 334.101562 569.789062 337.539062 565.265625 338.433594 Z M 113.09375 353.699219 C 159.21875 353.699219 196.609375 391.074219 196.621094 437.183594 C 196.621094 468.195312 181.539062 499.851562 156.539062 530.667969 C 147.886719 541.332031 138.628906 551.140625 129.367188 559.882812 C 126.121094 562.945312 123.101562 565.660156 120.386719 568 C 119.429688 568.824219 118.578125 569.542969 117.839844 570.15625 C 117.386719 570.53125 117.066406 570.792969 116.886719 570.933594 L 113.09375 573.96875 L 109.296875 570.933594 C 109.117188 570.792969 108.796875 570.53125 108.347656 570.15625 C 107.605469 569.542969 106.753906 568.824219 105.796875 568 C 103.082031 565.660156 100.066406 562.945312 96.820312 559.882812 C 87.558594 551.140625 78.300781 541.332031 69.644531 530.667969 C 44.644531 499.851562 29.5625 468.195312 29.5625 437.183594 C 29.5625 391.082031 66.960938 353.699219 113.09375 353.699219 Z M 113.597656 475.644531 C 134.535156 475.644531 151.550781 458.632812 151.566406 437.691406 C 151.566406 416.753906 134.535156 399.753906 113.597656 399.753906 C 92.652344 399.753906 75.628906 416.75 75.628906 437.6875 C 75.628906 458.640625 92.648438 475.644531 113.597656 475.644531 Z M 718.8125 254.902344 C 718.8125 259.800781 715.320312 263.601562 711.03125 263.390625 L 709.121094 263.296875 C 709.121094 263.308594 709.128906 263.316406 709.128906 263.332031 C 710.164062 266.445312 710.742188 269.816406 710.742188 273.324219 L 710.742188 283.71875 C 710.742188 293.882812 708.269531 302.53125 702.679688 306.53125 L 702.679688 317.945312 C 702.679688 323.679688 698.59375 328.125 693.570312 327.875 L 685.214844 327.464844 C 680.191406 327.214844 676.109375 322.359375 676.109375 316.632812 L 676.109375 307.972656 L 602.070312 304.320312 L 602.070312 312.980469 C 602.070312 318.710938 597.988281 323.15625 592.960938 322.910156 L 584.597656 322.496094 C 579.570312 322.25 575.484375 317.394531 575.484375 311.667969 L 575.484375 300.25 C 569.902344 295.703125 567.429688 286.8125 567.429688 276.644531 L 567.429688 266.25 C 567.429688 262.75 568.003906 259.433594 569.027344 256.429688 C 569.027344 256.414062 569.039062 256.402344 569.039062 256.378906 L 567.128906 256.285156 C 562.828125 256.074219 559.347656 251.929688 559.347656 247.039062 C 559.347656 242.132812 562.828125 238.332031 567.128906 238.546875 L 574.71875 238.921875 C 574.996094 238.933594 575.25 239.007812 575.511719 239.050781 L 585.394531 214.265625 C 588.519531 206.4375 596.050781 200.789062 602.914062 201.128906 L 613.8125 201.664062 L 664.34375 204.160156 L 675.242188 204.699219 C 681.992188 205.03125 689.699219 211.5625 692.761719 219.558594 L 702.648438 245.328125 C 702.90625 245.308594 703.160156 245.261719 703.433594 245.273438 L 711.03125 245.648438 C 715.320312 245.855469 718.8125 249.996094 718.8125 254.902344 Z M 718.8125 254.902344 " fill-opacity="1" fill-rule="evenodd"/></g></svg>