<svg xmlns="http://www.w3.org/2000/svg" xmlns:xlink="http://www.w3.org/1999/xlink" width="1024" zoomAndPan="magnify" viewBox="0 0 768 767.999994" height="1024" preserveAspectRatio="xMidYMid meet" version="1.0"><defs><clipPath id="0d275b4b04"><path d="M 76.800781 76.800781 L 691.050781 76.800781 L 691.050781 691.050781 L 76.800781 691.050781 Z M 76.800781 76.800781 " clip-rule="nonzero"/></clipPath></defs><g clip-path="url(#0d275b4b04)"><path fill="#ffffff" d="M 383.925781 76.800781 C 214.515625 76.800781 76.800781 214.515625 76.800781 383.925781 C 76.800781 553.335938 214.515625 691.050781 383.925781 691.050781 C 553.335938 691.050781 691.050781 553.335938 691.050781 383.925781 C 691.050781 214.515625 553.335938 76.800781 383.925781 76.800781 Z M 383.925781 667.339844 C 227.660156 667.339844 100.511719 540.191406 100.511719 383.925781 C 100.511719 227.660156 227.660156 100.511719 383.925781 100.511719 C 540.191406 100.511719 667.339844 227.660156 667.339844 383.925781 C 667.339844 540.191406 540.191406 667.339844 383.925781 667.339844 Z M 383.925781 667.339844 " fill-opacity="1" fill-rule="nonzero"/></g><path fill="#ffffff" d="M 292.402344 327.78125 C 303.828125 327.78125 313.039062 318.445312 313.039062 307.144531 L 313.039062 248.054688 C 313.039062 236.628906 303.703125 227.414062 292.402344 227.414062 C 281.097656 227.414062 271.761719 236.75 271.761719 248.054688 L 271.761719 307.144531 C 271.761719 318.570312 280.976562 327.78125 292.402344 327.78125 Z M 292.402344 327.78125 " fill-opacity="1" fill-rule="nonzero"/><path fill="#ffffff" d="M 475.449219 327.78125 C 486.875 327.78125 496.085938 318.445312 496.085938 307.144531 L 496.085938 248.054688 C 496.085938 236.628906 486.75 227.414062 475.449219 227.414062 C 464.144531 227.414062 454.808594 236.75 454.808594 248.054688 L 454.808594 307.144531 C 454.808594 318.570312 464.023438 327.78125 475.449219 327.78125 Z M 475.449219 327.78125 " fill-opacity="1" fill-rule="nonzero"/><path fill="#ffffff" d="M 585.152344 339.945312 C 578.765625 338.347656 572.375 342.15625 570.65625 348.542969 C 548.789062 433.679688 472.007812 493.261719 383.925781 493.261719 C 295.839844 493.261719 219.058594 433.679688 197.191406 348.542969 C 195.597656 342.15625 189.085938 338.347656 182.695312 339.945312 C 176.308594 341.542969 172.5 348.054688 174.097656 354.441406 C 198.667969 450.140625 284.90625 516.972656 383.800781 516.972656 C 482.695312 516.972656 568.9375 450.140625 593.507812 354.441406 C 595.351562 348.054688 591.542969 341.542969 585.152344 339.945312 Z M 585.152344 339.945312 " fill-opacity="1" fill-rule="nonzero"/></svg>