<svg xmlns="http://www.w3.org/2000/svg" xmlns:xlink="http://www.w3.org/1999/xlink" width="1080" zoomAndPan="magnify" viewBox="0 0 810 1439.999935" height="1920" preserveAspectRatio="xMidYMid meet" version="1.0"><defs><clipPath id="f9e0c2ff9e"><path d="M 243 580.476562 L 567 580.476562 L 567 859.476562 L 243 859.476562 Z M 243 580.476562 " clip-rule="nonzero"/></clipPath><clipPath id="fae99bc2af"><path d="M 132.375 447.375 L 677.625 447.375 L 677.625 992.625 L 132.375 992.625 Z M 132.375 447.375 " clip-rule="nonzero"/></clipPath></defs><g clip-path="url(#f9e0c2ff9e)"><path fill="#fffffe" d="M 510.660156 595.992188 C 510.660156 594.976562 510.5625 593.96875 510.363281 592.96875 C 510.164062 591.96875 509.871094 591 509.480469 590.058594 C 509.089844 589.117188 508.613281 588.226562 508.046875 587.378906 C 507.480469 586.53125 506.839844 585.746094 506.117188 585.027344 C 505.398438 584.308594 504.617188 583.664062 503.769531 583.097656 C 502.921875 582.535156 502.027344 582.054688 501.085938 581.664062 C 500.144531 581.277344 499.175781 580.980469 498.175781 580.785156 C 497.179688 580.585938 496.167969 580.484375 495.152344 580.484375 L 314.847656 580.484375 C 313.832031 580.484375 312.820312 580.585938 311.824219 580.785156 C 310.824219 580.980469 309.855469 581.277344 308.914062 581.664062 C 307.972656 582.054688 307.078125 582.535156 306.230469 583.097656 C 305.382812 583.664062 304.601562 584.308594 303.882812 585.027344 C 303.160156 585.746094 302.519531 586.53125 301.953125 587.378906 C 301.386719 588.226562 300.910156 589.117188 300.519531 590.058594 C 300.128906 591 299.835938 591.96875 299.636719 592.96875 C 299.4375 593.96875 299.339844 594.976562 299.339844 595.992188 L 299.339844 647 L 243 685.480469 L 243 843.925781 C 243 844.945312 243.097656 845.953125 243.296875 846.953125 C 243.496094 847.949219 243.789062 848.921875 244.179688 849.859375 C 244.570312 850.800781 245.046875 851.695312 245.613281 852.542969 C 246.179688 853.390625 246.824219 854.171875 247.542969 854.890625 C 248.261719 855.613281 249.046875 856.253906 249.894531 856.820312 C 250.738281 857.386719 251.632812 857.863281 252.574219 858.253906 C 253.515625 858.644531 254.484375 858.9375 255.484375 859.136719 C 256.484375 859.335938 257.492188 859.433594 258.511719 859.433594 L 551.488281 859.433594 C 552.507812 859.433594 553.515625 859.335938 554.515625 859.136719 C 555.515625 858.9375 556.484375 858.644531 557.425781 858.253906 C 558.367188 857.863281 559.257812 857.386719 560.105469 856.820312 C 560.953125 856.253906 561.738281 855.613281 562.457031 854.890625 C 563.175781 854.171875 563.820312 853.390625 564.386719 852.542969 C 564.953125 851.695312 565.429688 850.800781 565.820312 849.859375 C 566.207031 848.921875 566.503906 847.949219 566.703125 846.953125 C 566.902344 845.953125 567 844.945312 567 843.925781 L 567 685.480469 L 510.660156 647 Z M 366.328125 747.910156 L 256.789062 837.945312 L 256.789062 699.679688 Z M 380.476562 754.132812 L 405 764.867188 L 429.523438 754.0625 L 540.875 845.582031 L 269.125 845.582031 Z M 443.671875 747.910156 L 553.210938 699.660156 L 553.210938 837.929688 Z M 314.847656 594.269531 L 495.152344 594.269531 C 495.378906 594.269531 495.597656 594.316406 495.8125 594.402344 C 496.023438 594.488281 496.207031 594.613281 496.371094 594.777344 C 496.53125 594.9375 496.65625 595.125 496.742188 595.335938 C 496.832031 595.546875 496.875 595.765625 496.875 595.992188 L 496.875 709.414062 L 405 749.875 L 313.125 709.414062 L 313.125 595.992188 C 313.125 595.765625 313.167969 595.546875 313.257812 595.335938 C 313.34375 595.125 313.46875 594.9375 313.628906 594.777344 C 313.792969 594.613281 313.976562 594.488281 314.1875 594.402344 C 314.398438 594.316406 314.621094 594.269531 314.847656 594.269531 Z M 299.339844 703.347656 L 264.042969 687.839844 L 299.339844 663.714844 Z M 545.957031 687.839844 L 510.660156 703.347656 L 510.660156 663.714844 Z M 545.957031 687.839844 " fill-opacity="1" fill-rule="nonzero"/></g><g clip-path="url(#fae99bc2af)"><path fill="#ffffff" d="M 405 992.625 C 254.382812 992.625 132.375 869.773438 132.375 720 C 132.375 570.222656 254.382812 447.375 405 447.375 C 555.617188 447.375 677.625 569.382812 677.625 720 C 677.625 870.617188 554.773438 992.625 405 992.625 Z M 405 464.203125 C 263.636719 464.203125 149.203125 578.636719 149.203125 720 C 149.203125 861.359375 263.636719 975.796875 405 975.796875 C 546.359375 975.796875 660.796875 861.359375 660.796875 720 C 660.796875 578.636719 545.519531 464.203125 405 464.203125 Z M 405 464.203125 " fill-opacity="1" fill-rule="nonzero"/></g></svg>