<svg xmlns="http://www.w3.org/2000/svg" xmlns:xlink="http://www.w3.org/1999/xlink" width="1024" zoomAndPan="magnify" viewBox="0 0 768 767.999994" height="1024" preserveAspectRatio="xMidYMid meet" version="1.0"><defs><clipPath id="4049039fdc"><path d="M 48.003906 144.183594 L 720 144.183594 L 720 624.183594 L 48.003906 624.183594 Z M 48.003906 144.183594 " clip-rule="nonzero"/></clipPath></defs><g clip-path="url(#4049039fdc)"><path fill="#ffffff" d="M 120.207031 144.183594 C 80.472656 144.183594 48.261719 176.371094 48.261719 216.183594 C 49.152344 325.363281 48.265625 440.917969 48.261719 552.183594 C 48.261719 590.5 78.046875 621.515625 115.710938 623.808594 L 650.800781 624.183594 C 689.164062 622.632812 719.746094 591.003906 719.746094 552.183594 L 719.746094 203.8125 C 713.925781 169.867188 684.480469 144.1875 648.925781 144.1875 C 472.78125 144.265625 296.421875 144.1875 120.203125 144.1875 Z M 119.082031 182.058594 L 651.175781 182.058594 L 393.746094 439.6875 C 389.046875 444.386719 381.578125 444.386719 376.882812 439.6875 L 119.078125 182.058594 Z M 683.777344 200.433594 L 683.777344 549.558594 C 683.777344 570.359375 676.289062 582.109375 661.296875 586.308594 L 479.933594 404.4375 L 683.777344 200.4375 Z M 88.363281 201.933594 L 288.835938 402.558594 L 105.605469 585.933594 C 93.058594 581.695312 88.691406 571.589844 88.367188 557.804688 L 88.367188 201.933594 Z M 314.316406 427.675781 L 376.894531 490.675781 C 381.59375 495.378906 389.058594 495.378906 393.757812 490.675781 L 454.460938 429.925781 L 612.59375 588.183594 L 153.945312 588.183594 L 314.324219 427.683594 Z M 314.316406 427.675781 " fill-opacity="1" fill-rule="nonzero"/></g></svg>