<svg xmlns="http://www.w3.org/2000/svg" xmlns:xlink="http://www.w3.org/1999/xlink" width="1024" zoomAndPan="magnify" viewBox="0 0 768 767.999994" height="1024" preserveAspectRatio="xMidYMid meet" version="1.0"><defs><clipPath id="a671a566f2"><path d="M 53.433594 53.433594 L 714.933594 53.433594 L 714.933594 714.933594 L 53.433594 714.933594 Z M 53.433594 53.433594 " clip-rule="nonzero"/></clipPath><clipPath id="8ec9ad1031"><path d="M 226.980469 556.5625 L 230.484375 559.675781 C 234.011719 562.949219 237.773438 565.933594 241.765625 568.625 C 245.636719 571.609375 249.597656 574.46875 253.648438 577.199219 C 257.699219 579.933594 261.828125 582.539062 266.042969 585.015625 C 270.253906 587.488281 274.542969 589.828125 278.902344 592.035156 C 283.261719 594.238281 287.6875 596.304688 292.179688 598.234375 C 296.667969 600.160156 301.214844 601.945312 305.816406 603.589844 C 310.417969 605.230469 315.066406 606.726562 319.761719 608.078125 C 324.460938 609.425781 329.191406 610.628906 333.964844 611.683594 C 338.734375 612.734375 343.535156 613.636719 348.363281 614.390625 C 353.191406 615.140625 358.039062 615.742188 362.90625 616.1875 C 367.769531 616.636719 372.644531 616.929688 377.53125 617.070312 C 382.414062 617.210938 387.296875 617.199219 392.179688 617.035156 C 397.066406 616.871094 401.9375 616.550781 406.800781 616.082031 C 411.664062 615.609375 416.507812 614.984375 421.332031 614.210938 C 426.15625 613.433594 430.953125 612.507812 435.71875 611.433594 C 440.484375 610.355469 445.214844 609.128906 449.902344 607.757812 C 454.59375 606.382812 459.234375 604.863281 463.828125 603.199219 C 468.421875 601.535156 472.957031 599.726562 477.4375 597.777344 C 481.917969 595.828125 486.335938 593.738281 490.683594 591.511719 C 495.035156 589.285156 499.308594 586.925781 503.507812 584.429688 C 507.710938 581.933594 511.828125 579.308594 515.867188 576.554688 C 519.902344 573.800781 523.847656 570.925781 527.703125 567.921875 C 531.558594 564.921875 535.316406 561.800781 538.976562 558.5625 C 542.636719 555.324219 546.191406 551.976562 549.640625 548.515625 C 553.089844 545.054688 556.425781 541.488281 559.652344 537.820312 C 562.878906 534.148438 565.984375 530.378906 568.976562 526.515625 C 571.964844 522.648438 574.828125 518.695312 577.570312 514.648438 C 580.308594 510.605469 582.921875 506.476562 585.402344 502.265625 C 587.882812 498.058594 590.230469 493.773438 592.445312 489.417969 C 594.65625 485.0625 596.730469 480.640625 598.664062 476.152344 C 600.601562 471.667969 602.394531 467.125 604.042969 462.523438 C 605.691406 457.925781 607.195312 453.277344 608.554688 448.585938 C 609.910156 443.890625 611.121094 439.160156 612.183594 434.390625 C 613.242188 429.621094 614.152344 424.820312 614.914062 419.992188 C 615.671875 415.167969 616.28125 410.320312 616.734375 405.457031 C 617.191406 400.589844 617.492188 395.714844 617.644531 390.832031 C 617.792969 385.949219 617.789062 381.066406 617.628906 376.179688 C 617.472656 371.296875 617.164062 366.421875 616.699219 361.558594 C 616.234375 356.695312 615.621094 351.851562 614.851562 347.023438 C 614.085938 342.199219 613.167969 337.402344 612.097656 332.632812 C 611.03125 327.867188 609.8125 323.136719 608.449219 318.445312 C 607.082031 313.753906 605.570312 309.109375 603.914062 304.511719 C 602.253906 299.914062 600.457031 295.375 598.511719 290.890625 C 596.570312 286.40625 594.488281 281.988281 592.269531 277.636719 C 590.050781 273.285156 587.695312 269.003906 585.207031 264.800781 C 582.71875 260.59375 580.101562 256.472656 577.355469 252.429688 C 574.605469 248.390625 571.734375 244.4375 568.742188 240.578125 C 565.746094 236.71875 562.632812 232.953125 559.398438 229.289062 C 556.167969 225.625 552.824219 222.066406 549.371094 218.609375 C 545.914062 215.15625 542.355469 211.8125 538.6875 208.578125 C 535.023438 205.347656 531.261719 202.234375 527.402344 199.238281 C 523.539062 196.242188 519.589844 193.371094 515.550781 190.625 C 511.507812 187.878906 507.386719 185.261719 503.179688 182.773438 C 498.976562 180.28125 494.695312 177.929688 490.34375 175.710938 C 485.988281 173.488281 481.570312 171.410156 477.085938 169.464844 C 472.605469 167.523438 468.0625 165.722656 463.46875 164.066406 C 458.871094 162.410156 454.226562 160.898438 449.535156 159.53125 C 444.84375 158.167969 440.113281 156.949219 435.347656 155.878906 C 430.578125 154.8125 425.78125 153.894531 420.957031 153.125 C 416.128906 152.359375 411.285156 151.742188 406.421875 151.28125 C 401.554688 150.816406 396.683594 150.507812 391.796875 150.347656 C 386.914062 150.191406 382.03125 150.1875 377.148438 150.335938 C 372.261719 150.484375 367.386719 150.789062 362.523438 151.242188 C 357.65625 151.699219 352.8125 152.308594 347.984375 153.066406 C 343.160156 153.824219 338.359375 154.734375 333.589844 155.796875 C 328.820312 156.859375 324.089844 158.066406 319.394531 159.425781 C 314.703125 160.785156 310.054688 162.289062 305.457031 163.9375 C 300.855469 165.585938 296.3125 167.378906 291.824219 169.3125 C 287.339844 171.25 282.917969 173.324219 278.5625 175.535156 C 274.203125 177.75 269.921875 180.09375 265.710938 182.578125 C 261.503906 185.058594 257.375 187.667969 253.332031 190.410156 C 249.285156 193.152344 245.328125 196.015625 241.464844 199.003906 C 237.597656 201.992188 233.832031 205.101562 230.160156 208.328125 C 226.488281 211.550781 222.925781 214.890625 219.464844 218.339844 C 216.003906 221.789062 212.652344 225.34375 209.414062 229.003906 C 206.179688 232.664062 203.058594 236.421875 200.058594 240.277344 C 197.054688 244.132812 194.175781 248.078125 191.421875 252.113281 C 188.667969 256.148438 186.046875 260.269531 183.550781 264.46875 C 181.054688 268.671875 178.691406 272.945312 176.464844 277.296875 C 174.238281 281.644531 172.152344 286.058594 170.203125 290.539062 C 168.25 295.019531 166.445312 299.558594 164.78125 304.152344 C 163.113281 308.746094 161.597656 313.386719 160.222656 318.078125 C 158.847656 322.765625 157.625 327.492188 156.546875 332.261719 C 155.472656 337.027344 154.546875 341.820312 153.769531 346.644531 C 152.992188 351.46875 152.371094 356.3125 151.898438 361.179688 C 151.429688 366.042969 151.109375 370.914062 150.945312 375.796875 C 150.777344 380.683594 150.765625 385.566406 150.910156 390.449219 C 151.050781 395.335938 151.34375 400.210938 151.792969 405.074219 C 152.238281 409.941406 152.839844 414.789062 153.589844 419.617188 C 154.339844 424.445312 155.242188 429.242188 156.296875 434.015625 C 157.351562 438.785156 158.550781 443.519531 159.902344 448.214844 C 161.253906 452.914062 162.75 457.5625 164.390625 462.164062 C 166.03125 466.765625 167.816406 471.3125 169.746094 475.800781 C 171.671875 480.292969 173.738281 484.714844 175.945312 489.078125 C 178.152344 493.4375 180.492188 497.722656 182.964844 501.9375 C 185.441406 506.152344 188.042969 510.28125 190.777344 514.332031 C 193.511719 518.382812 196.371094 522.34375 199.351562 526.210938 C 207.5625 537.238281 216.769531 547.355469 226.980469 556.5625 Z M 263.167969 535.941406 C 264.585938 533.179688 266.097656 530.46875 267.699219 527.8125 C 269.300781 525.152344 270.992188 522.554688 272.773438 520.011719 C 274.554688 517.46875 276.421875 514.992188 278.375 512.578125 C 280.324219 510.164062 282.355469 507.820312 284.46875 505.542969 C 286.582031 503.269531 288.765625 501.070312 291.03125 498.945312 C 293.292969 496.820312 295.625 494.777344 298.027344 492.8125 C 300.429688 490.847656 302.898438 488.964844 305.429688 487.171875 C 307.960938 485.375 310.554688 483.667969 313.203125 482.050781 C 315.851562 480.433594 318.550781 478.90625 321.304688 477.476562 C 324.058594 476.042969 326.859375 474.707031 329.703125 473.464844 C 332.546875 472.222656 335.433594 471.082031 338.355469 470.039062 C 341.277344 468.996094 344.234375 468.054688 347.222656 467.214844 C 350.210938 466.375 353.222656 465.636719 356.261719 465.003906 C 359.300781 464.371094 362.355469 463.839844 365.433594 463.417969 C 368.507812 462.992188 371.59375 462.671875 374.6875 462.460938 C 377.785156 462.25 380.886719 462.140625 383.988281 462.140625 C 387.09375 462.140625 390.195312 462.25 393.289062 462.460938 C 396.386719 462.671875 399.472656 462.992188 402.546875 463.417969 C 405.621094 463.839844 408.679688 464.371094 411.71875 465.003906 C 414.757812 465.636719 417.769531 466.375 420.757812 467.214844 C 423.746094 468.054688 426.699219 468.996094 429.625 470.039062 C 432.546875 471.082031 435.433594 472.222656 438.277344 473.464844 C 441.121094 474.707031 443.921875 476.042969 446.675781 477.476562 C 449.429688 478.90625 452.128906 480.433594 454.777344 482.050781 C 457.425781 483.667969 460.015625 485.375 462.550781 487.171875 C 465.082031 488.964844 467.546875 490.847656 469.949219 492.8125 C 472.355469 494.777344 474.6875 496.820312 476.949219 498.945312 C 479.210938 501.070312 481.398438 503.269531 483.511719 505.542969 C 485.625 507.820312 487.65625 510.164062 489.605469 512.578125 C 491.558594 514.992188 493.421875 517.46875 495.203125 520.011719 C 496.984375 522.554688 498.679688 525.152344 500.28125 527.8125 C 501.882812 530.46875 503.394531 533.179688 504.8125 535.941406 L 495.082031 543.332031 C 491.777344 545.855469 488.277344 548.058594 484.578125 549.949219 C 478.277344 553.941406 471.664062 557.316406 464.730469 560.066406 L 455.78125 564.347656 C 448.300781 567.140625 440.644531 569.34375 432.824219 570.960938 C 429.902344 571.96875 426.917969 572.746094 423.875 573.296875 C 416.09375 573.296875 408.308594 575.628906 400.527344 576.410156 L 390.800781 576.410156 C 383.277344 576.804688 375.753906 576.804688 368.230469 576.410156 L 357.335938 576.410156 C 350.113281 575.265625 342.976562 573.707031 335.933594 571.738281 L 325.816406 568.238281 C 318.132812 565.972656 310.742188 562.988281 303.636719 559.289062 L 293.519531 555.007812 C 283.457031 549.640625 273.859375 543.546875 264.726562 536.71875 Z M 384.183594 189.625 C 387.367188 189.625 390.550781 189.703125 393.730469 189.859375 C 396.910156 190.015625 400.085938 190.25 403.253906 190.5625 C 406.421875 190.875 409.582031 191.265625 412.730469 191.730469 C 415.882812 192.199219 419.019531 192.742188 422.140625 193.363281 C 425.265625 193.984375 428.371094 194.683594 431.457031 195.457031 C 434.546875 196.230469 437.613281 197.078125 440.660156 198.003906 C 443.707031 198.925781 446.730469 199.925781 449.730469 201 C 452.726562 202.070312 455.695312 203.21875 458.640625 204.433594 C 461.582031 205.652344 464.492188 206.945312 467.367188 208.304688 C 470.246094 209.667969 473.089844 211.097656 475.898438 212.597656 C 478.707031 214.101562 481.476562 215.667969 484.207031 217.304688 C 486.9375 218.941406 489.628906 220.644531 492.273438 222.414062 C 494.921875 224.183594 497.523438 226.015625 500.082031 227.914062 C 502.640625 229.808594 505.148438 231.769531 507.609375 233.789062 C 510.074219 235.808594 512.484375 237.886719 514.84375 240.027344 C 517.203125 242.164062 519.507812 244.359375 521.757812 246.609375 C 524.007812 248.863281 526.203125 251.167969 528.34375 253.527344 C 530.480469 255.886719 532.558594 258.296875 534.582031 260.757812 C 536.601562 263.21875 538.558594 265.726562 540.457031 268.285156 C 542.351562 270.84375 544.183594 273.445312 545.953125 276.09375 C 547.722656 278.742188 549.425781 281.429688 551.0625 284.160156 C 552.699219 286.890625 554.269531 289.660156 555.769531 292.46875 C 557.269531 295.277344 558.703125 298.121094 560.0625 301 C 561.425781 303.878906 562.714844 306.789062 563.933594 309.730469 C 565.152344 312.671875 566.296875 315.640625 567.371094 318.640625 C 568.441406 321.636719 569.441406 324.660156 570.367188 327.707031 C 571.289062 330.753906 572.140625 333.820312 572.914062 336.910156 C 573.6875 340 574.382812 343.105469 575.003906 346.226562 C 575.625 349.351562 576.171875 352.488281 576.636719 355.636719 C 577.105469 358.785156 577.496094 361.945312 577.804688 365.113281 C 578.117188 368.28125 578.351562 371.457031 578.507812 374.636719 C 578.664062 377.816406 578.742188 381 578.742188 384.183594 C 578.734375 389.773438 578.484375 395.351562 577.988281 400.917969 C 577.492188 406.488281 576.757812 412.023438 575.777344 417.523438 C 574.796875 423.027344 573.582031 428.476562 572.125 433.875 C 570.667969 439.269531 568.980469 444.59375 567.058594 449.84375 C 565.140625 455.09375 562.992188 460.246094 560.621094 465.308594 C 558.25 470.371094 555.664062 475.320312 552.859375 480.152344 C 550.054688 484.988281 547.046875 489.691406 543.832031 494.265625 C 540.617188 498.835938 537.207031 503.261719 533.605469 507.535156 C 531.679688 504.328125 529.652344 501.1875 527.523438 498.109375 C 525.390625 495.035156 523.167969 492.03125 520.84375 489.097656 C 518.523438 486.164062 516.105469 483.3125 513.601562 480.535156 C 511.09375 477.757812 508.5 475.0625 505.820312 472.453125 C 503.140625 469.84375 500.382812 467.320312 497.539062 464.886719 C 494.699219 462.457031 491.78125 460.117188 488.789062 457.871094 C 485.792969 455.628906 482.734375 453.480469 479.601562 451.433594 C 476.472656 449.386719 473.277344 447.441406 470.023438 445.597656 C 466.765625 443.757812 463.453125 442.023438 460.085938 440.394531 C 456.71875 438.765625 453.300781 437.246094 449.835938 435.835938 C 446.371094 434.425781 442.863281 433.132812 439.316406 431.949219 C 435.765625 430.765625 432.183594 429.699219 428.566406 428.746094 C 424.949219 427.792969 421.304688 426.957031 417.632812 426.238281 C 413.960938 425.523438 410.269531 424.921875 406.558594 424.441406 C 402.851562 423.960938 399.128906 423.601562 395.394531 423.363281 C 391.664062 423.121094 387.925781 423 384.183594 423 C 380.445312 423 376.707031 423.121094 372.972656 423.363281 C 369.238281 423.601562 365.519531 423.960938 361.808594 424.441406 C 358.097656 424.921875 354.40625 425.523438 350.738281 426.238281 C 347.066406 426.957031 343.421875 427.792969 339.804688 428.746094 C 336.183594 429.699219 332.601562 430.765625 329.054688 431.949219 C 325.503906 433.132812 321.996094 434.425781 318.53125 435.835938 C 315.066406 437.246094 311.648438 438.765625 308.28125 440.394531 C 304.914062 442.023438 301.601562 443.757812 298.347656 445.597656 C 295.089844 447.441406 291.898438 449.386719 288.765625 451.433594 C 285.636719 453.480469 282.574219 455.628906 279.582031 457.871094 C 276.589844 460.117188 273.671875 462.457031 270.828125 464.886719 C 267.988281 467.320312 265.226562 469.84375 262.546875 472.453125 C 259.867188 475.0625 257.273438 477.757812 254.769531 480.535156 C 252.261719 483.3125 249.847656 486.164062 247.523438 489.097656 C 245.203125 492.03125 242.976562 495.035156 240.847656 498.109375 C 238.71875 501.1875 236.691406 504.328125 234.761719 507.535156 L 230.09375 502.085938 C 227.398438 498.496094 224.832031 494.816406 222.394531 491.046875 C 219.957031 487.277344 217.652344 483.429688 215.476562 479.5 C 213.304688 475.570312 211.273438 471.570312 209.375 467.5 C 207.480469 463.433594 205.726562 459.300781 204.117188 455.109375 C 202.507812 450.917969 201.046875 446.679688 199.730469 442.386719 C 198.414062 438.09375 197.246094 433.761719 196.230469 429.386719 C 195.214844 425.015625 194.351562 420.613281 193.640625 416.179688 C 192.929688 411.746094 192.371094 407.296875 191.96875 402.824219 C 191.566406 398.351562 191.316406 393.875 191.222656 389.382812 C 191.128906 384.894531 191.191406 380.410156 191.410156 375.925781 C 191.628906 371.441406 192 366.96875 192.527344 362.511719 C 193.054688 358.054688 193.734375 353.617188 194.570312 349.207031 C 195.402344 344.796875 196.386719 340.417969 197.527344 336.074219 C 198.664062 331.734375 199.949219 327.433594 201.382812 323.179688 C 202.816406 318.925781 204.398438 314.726562 206.121094 310.582031 C 207.847656 306.4375 209.714844 302.359375 211.722656 298.34375 C 213.730469 294.328125 215.875 290.386719 218.15625 286.519531 C 220.433594 282.652344 222.847656 278.867188 225.390625 275.167969 C 227.929688 271.46875 230.597656 267.859375 233.390625 264.34375 C 236.183594 260.828125 239.09375 257.414062 242.121094 254.101562 C 245.152344 250.785156 248.289062 247.582031 251.539062 244.484375 C 254.792969 241.386719 258.144531 238.40625 261.601562 235.542969 C 265.058594 232.679688 268.609375 229.9375 272.257812 227.320312 C 275.902344 224.699219 279.636719 222.210938 283.457031 219.851562 C 287.273438 217.488281 291.171875 215.265625 295.144531 213.175781 C 299.117188 211.082031 303.15625 209.132812 307.265625 207.320312 C 311.371094 205.511719 315.539062 203.84375 319.761719 202.320312 C 323.984375 200.800781 328.257812 199.425781 332.574219 198.199219 C 336.894531 196.972656 341.25 195.894531 345.640625 194.96875 C 350.035156 194.042969 354.453125 193.273438 358.902344 192.652344 C 363.347656 192.035156 367.808594 191.570312 372.289062 191.257812 C 376.765625 190.949219 381.25 190.792969 385.742188 190.792969 Z M 462.007812 345.273438 C 462.007812 344 461.976562 342.726562 461.914062 341.453125 C 461.851562 340.183594 461.757812 338.910156 461.632812 337.644531 C 461.507812 336.378906 461.351562 335.113281 461.164062 333.855469 C 460.980469 332.59375 460.761719 331.339844 460.511719 330.089844 C 460.265625 328.839844 459.984375 327.597656 459.675781 326.363281 C 459.367188 325.128906 459.027344 323.902344 458.65625 322.679688 C 458.285156 321.460938 457.886719 320.253906 457.457031 319.054688 C 457.03125 317.855469 456.570312 316.667969 456.082031 315.492188 C 455.597656 314.3125 455.082031 313.148438 454.535156 312 C 453.992188 310.847656 453.417969 309.710938 452.820312 308.585938 C 452.21875 307.464844 451.589844 306.355469 450.9375 305.261719 C 450.28125 304.171875 449.601562 303.09375 448.890625 302.035156 C 448.183594 300.976562 447.453125 299.9375 446.691406 298.914062 C 445.933594 297.890625 445.152344 296.886719 444.34375 295.902344 C 443.535156 294.917969 442.703125 293.953125 441.847656 293.007812 C 440.992188 292.066406 440.113281 291.144531 439.214844 290.242188 C 438.3125 289.34375 437.390625 288.464844 436.449219 287.609375 C 435.503906 286.753906 434.539062 285.921875 433.554688 285.113281 C 432.570312 284.304688 431.566406 283.523438 430.542969 282.765625 C 429.519531 282.003906 428.480469 281.273438 427.421875 280.566406 C 426.363281 279.855469 425.285156 279.175781 424.195312 278.519531 C 423.101562 277.867188 421.992188 277.238281 420.871094 276.636719 C 419.746094 276.039062 418.609375 275.464844 417.457031 274.921875 C 416.308594 274.375 415.144531 273.859375 413.964844 273.375 C 412.789062 272.886719 411.601562 272.425781 410.402344 272 C 409.203125 271.570312 407.992188 271.167969 406.773438 270.800781 C 405.554688 270.429688 404.328125 270.089844 403.09375 269.78125 C 401.859375 269.472656 400.617188 269.191406 399.367188 268.945312 C 398.117188 268.695312 396.863281 268.476562 395.601562 268.292969 C 394.34375 268.105469 393.078125 267.949219 391.8125 267.824219 C 390.546875 267.699219 389.273438 267.605469 388.003906 267.542969 C 386.730469 267.480469 385.457031 267.449219 384.183594 267.449219 C 382.910156 267.449219 381.636719 267.480469 380.367188 267.542969 C 379.09375 267.605469 377.824219 267.699219 376.554688 267.824219 C 375.289062 267.949219 374.023438 268.105469 372.765625 268.292969 C 371.503906 268.476562 370.25 268.695312 369 268.945312 C 367.753906 269.191406 366.511719 269.472656 365.273438 269.78125 C 364.039062 270.089844 362.8125 270.429688 361.59375 270.800781 C 360.375 271.167969 359.164062 271.570312 357.964844 272 C 356.765625 272.425781 355.578125 272.886719 354.402344 273.375 C 353.226562 273.859375 352.0625 274.375 350.910156 274.921875 C 349.757812 275.464844 348.621094 276.039062 347.5 276.636719 C 346.375 277.238281 345.265625 277.867188 344.175781 278.519531 C 343.082031 279.175781 342.007812 279.855469 340.949219 280.566406 C 339.890625 281.273438 338.847656 282.003906 337.824219 282.765625 C 336.800781 283.523438 335.796875 284.304688 334.8125 285.113281 C 333.828125 285.921875 332.863281 286.753906 331.921875 287.609375 C 330.976562 288.464844 330.054688 289.34375 329.15625 290.242188 C 328.253906 291.144531 327.375 292.066406 326.519531 293.007812 C 325.664062 293.953125 324.832031 294.917969 324.027344 295.902344 C 323.21875 296.886719 322.433594 297.890625 321.675781 298.914062 C 320.917969 299.9375 320.183594 300.976562 319.476562 302.035156 C 318.769531 303.09375 318.085938 304.171875 317.433594 305.261719 C 316.777344 306.355469 316.152344 307.464844 315.550781 308.585938 C 314.949219 309.710938 314.378906 310.847656 313.832031 312 C 313.289062 313.148438 312.773438 314.3125 312.285156 315.492188 C 311.796875 316.667969 311.339844 317.855469 310.910156 319.054688 C 310.480469 320.253906 310.082031 321.460938 309.710938 322.679688 C 309.34375 323.902344 309.003906 325.128906 308.691406 326.363281 C 308.382812 327.597656 308.105469 328.839844 307.855469 330.089844 C 307.609375 331.339844 307.390625 332.59375 307.203125 333.855469 C 307.015625 335.113281 306.859375 336.378906 306.734375 337.644531 C 306.609375 338.910156 306.515625 340.183594 306.453125 341.453125 C 306.390625 342.726562 306.359375 344 306.359375 345.273438 C 306.359375 346.546875 306.390625 347.820312 306.453125 349.089844 C 306.515625 350.363281 306.609375 351.632812 306.734375 352.902344 C 306.859375 354.167969 307.015625 355.433594 307.203125 356.691406 C 307.390625 357.953125 307.609375 359.207031 307.855469 360.457031 C 308.105469 361.703125 308.382812 362.945312 308.691406 364.183594 C 309.003906 365.417969 309.34375 366.644531 309.710938 367.863281 C 310.082031 369.082031 310.480469 370.292969 310.910156 371.492188 C 311.339844 372.691406 311.796875 373.878906 312.285156 375.054688 C 312.773438 376.230469 313.289062 377.394531 313.832031 378.546875 C 314.378906 379.699219 314.949219 380.835938 315.550781 381.957031 C 316.152344 383.082031 316.777344 384.191406 317.433594 385.28125 C 318.085938 386.375 318.769531 387.449219 319.476562 388.507812 C 320.183594 389.566406 320.917969 390.609375 321.675781 391.632812 C 322.433594 392.65625 323.21875 393.660156 324.027344 394.644531 C 324.832031 395.628906 325.664062 396.59375 326.519531 397.535156 C 327.375 398.480469 328.253906 399.402344 329.15625 400.300781 C 330.054688 401.203125 330.976562 402.082031 331.921875 402.9375 C 332.863281 403.792969 333.828125 404.621094 334.8125 405.429688 C 335.796875 406.238281 336.800781 407.023438 337.824219 407.78125 C 338.847656 408.539062 339.890625 409.273438 340.949219 409.980469 C 342.007812 410.6875 343.082031 411.371094 344.175781 412.023438 C 345.265625 412.679688 346.375 413.304688 347.5 413.90625 C 348.621094 414.507812 349.757812 415.078125 350.910156 415.625 C 352.0625 416.167969 353.226562 416.683594 354.402344 417.171875 C 355.578125 417.660156 356.765625 418.117188 357.964844 418.546875 C 359.164062 418.976562 360.375 419.375 361.59375 419.746094 C 362.8125 420.113281 364.039062 420.453125 365.273438 420.765625 C 366.511719 421.074219 367.753906 421.351562 369 421.601562 C 370.25 421.847656 371.503906 422.066406 372.765625 422.253906 C 374.023438 422.441406 375.289062 422.597656 376.554688 422.722656 C 377.824219 422.847656 379.09375 422.941406 380.367188 423.003906 C 381.636719 423.066406 382.910156 423.097656 384.183594 423.097656 C 385.457031 423.097656 386.730469 423.066406 388.003906 423.003906 C 389.273438 422.941406 390.546875 422.847656 391.8125 422.722656 C 393.078125 422.597656 394.34375 422.441406 395.601562 422.253906 C 396.863281 422.066406 398.117188 421.847656 399.367188 421.601562 C 400.617188 421.351562 401.859375 421.074219 403.09375 420.765625 C 404.328125 420.453125 405.554688 420.113281 406.773438 419.746094 C 407.992188 419.375 409.203125 418.976562 410.402344 418.546875 C 411.601562 418.117188 412.789062 417.660156 413.964844 417.171875 C 415.144531 416.683594 416.308594 416.167969 417.457031 415.625 C 418.609375 415.078125 419.746094 414.507812 420.871094 413.90625 C 421.992188 413.304688 423.101562 412.679688 424.195312 412.023438 C 425.285156 411.371094 426.363281 410.6875 427.421875 409.980469 C 428.480469 409.273438 429.519531 408.539062 430.542969 407.78125 C 431.566406 407.023438 432.570312 406.238281 433.554688 405.429688 C 434.539062 404.621094 435.503906 403.792969 436.449219 402.9375 C 437.390625 402.082031 438.3125 401.203125 439.214844 400.300781 C 440.113281 399.402344 440.992188 398.480469 441.847656 397.535156 C 442.703125 396.59375 443.535156 395.628906 444.34375 394.644531 C 445.152344 393.660156 445.933594 392.65625 446.691406 391.632812 C 447.453125 390.609375 448.183594 389.566406 448.890625 388.507812 C 449.601562 387.449219 450.28125 386.375 450.9375 385.28125 C 451.589844 384.191406 452.21875 383.082031 452.820312 381.957031 C 453.417969 380.835938 453.992188 379.699219 454.535156 378.546875 C 455.082031 377.394531 455.597656 376.230469 456.082031 375.054688 C 456.570312 373.878906 457.03125 372.691406 457.457031 371.492188 C 457.886719 370.292969 458.285156 369.082031 458.65625 367.863281 C 459.027344 366.644531 459.367188 365.417969 459.675781 364.183594 C 459.984375 362.945312 460.265625 361.703125 460.511719 360.457031 C 460.761719 359.207031 460.980469 357.953125 461.164062 356.691406 C 461.351562 355.433594 461.507812 354.167969 461.632812 352.902344 C 461.757812 351.632812 461.851562 350.363281 461.914062 349.089844 C 461.976562 347.820312 462.007812 346.546875 462.007812 345.273438 Z M 384.183594 384.183594 C 382.910156 384.183594 381.636719 384.121094 380.371094 383.996094 C 379.101562 383.871094 377.84375 383.683594 376.59375 383.4375 C 375.34375 383.1875 374.109375 382.878906 372.890625 382.507812 C 371.667969 382.140625 370.472656 381.710938 369.292969 381.222656 C 368.117188 380.734375 366.964844 380.191406 365.839844 379.589844 C 364.71875 378.988281 363.625 378.335938 362.566406 377.625 C 361.507812 376.917969 360.484375 376.160156 359.5 375.351562 C 358.515625 374.542969 357.570312 373.6875 356.667969 372.789062 C 355.769531 371.886719 354.914062 370.941406 354.105469 369.957031 C 353.296875 368.972656 352.539062 367.949219 351.832031 366.890625 C 351.121094 365.832031 350.46875 364.738281 349.867188 363.617188 C 349.265625 362.492188 348.722656 361.339844 348.234375 360.164062 C 347.746094 358.984375 347.316406 357.789062 346.949219 356.566406 C 346.578125 355.347656 346.269531 354.113281 346.019531 352.863281 C 345.773438 351.613281 345.585938 350.355469 345.460938 349.085938 C 345.335938 347.820312 345.273438 346.546875 345.273438 345.273438 C 345.273438 344 345.335938 342.726562 345.460938 341.457031 C 345.585938 340.191406 345.773438 338.929688 346.019531 337.679688 C 346.269531 336.429688 346.578125 335.195312 346.949219 333.976562 C 347.316406 332.757812 347.746094 331.558594 348.234375 330.382812 C 348.722656 329.203125 349.265625 328.054688 349.867188 326.929688 C 350.46875 325.804688 351.121094 324.714844 351.832031 323.65625 C 352.539062 322.59375 353.296875 321.574219 354.105469 320.585938 C 354.914062 319.601562 355.769531 318.660156 356.667969 317.757812 C 357.570312 316.855469 358.515625 316 359.5 315.195312 C 360.484375 314.386719 361.507812 313.625 362.566406 312.917969 C 363.625 312.210938 364.71875 311.554688 365.839844 310.957031 C 366.964844 310.355469 368.117188 309.808594 369.292969 309.324219 C 370.472656 308.835938 371.667969 308.40625 372.890625 308.035156 C 374.109375 307.667969 375.34375 307.355469 376.59375 307.109375 C 377.84375 306.859375 379.101562 306.671875 380.371094 306.546875 C 381.636719 306.421875 382.910156 306.359375 384.183594 306.359375 C 385.457031 306.359375 386.730469 306.421875 388 306.546875 C 389.265625 306.671875 390.527344 306.859375 391.777344 307.109375 C 393.027344 307.355469 394.261719 307.667969 395.480469 308.035156 C 396.699219 308.40625 397.898438 308.835938 399.074219 309.324219 C 400.253906 309.808594 401.402344 310.355469 402.527344 310.957031 C 403.652344 311.554688 404.742188 312.210938 405.800781 312.917969 C 406.863281 313.625 407.882812 314.386719 408.871094 315.195312 C 409.855469 316 410.796875 316.855469 411.699219 317.757812 C 412.601562 318.660156 413.453125 319.601562 414.261719 320.585938 C 415.070312 321.574219 415.832031 322.59375 416.539062 323.65625 C 417.246094 324.714844 417.902344 325.804688 418.5 326.929688 C 419.101562 328.054688 419.644531 329.203125 420.132812 330.382812 C 420.621094 331.558594 421.050781 332.757812 421.421875 333.976562 C 421.789062 335.195312 422.101562 336.429688 422.347656 337.679688 C 422.597656 338.929688 422.785156 340.191406 422.910156 341.457031 C 423.035156 342.726562 423.097656 344 423.097656 345.273438 C 423.097656 346.546875 423.035156 347.820312 422.910156 349.085938 C 422.785156 350.355469 422.597656 351.613281 422.347656 352.863281 C 422.101562 354.113281 421.789062 355.347656 421.421875 356.566406 C 421.050781 357.789062 420.621094 358.984375 420.132812 360.164062 C 419.644531 361.339844 419.101562 362.492188 418.5 363.617188 C 417.902344 364.738281 417.246094 365.832031 416.539062 366.890625 C 415.832031 367.949219 415.070312 368.972656 414.261719 369.957031 C 413.453125 370.941406 412.601562 371.886719 411.699219 372.789062 C 410.796875 373.6875 409.855469 374.542969 408.871094 375.351562 C 407.882812 376.160156 406.863281 376.917969 405.800781 377.625 C 404.742188 378.335938 403.652344 378.988281 402.527344 379.589844 C 401.402344 380.191406 400.253906 380.734375 399.074219 381.222656 C 397.898438 381.710938 396.699219 382.140625 395.480469 382.507812 C 394.261719 382.878906 393.027344 383.1875 391.777344 383.4375 C 390.527344 383.683594 389.265625 383.871094 388 383.996094 C 386.730469 384.121094 385.457031 384.183594 384.183594 384.183594 Z M 695.476562 53.433594 L 72.890625 53.433594 C 72.253906 53.433594 71.617188 53.464844 70.984375 53.527344 C 70.347656 53.589844 69.71875 53.683594 69.09375 53.808594 C 68.46875 53.933594 67.851562 54.085938 67.242188 54.273438 C 66.632812 54.457031 66.035156 54.671875 65.445312 54.914062 C 64.855469 55.160156 64.28125 55.429688 63.71875 55.730469 C 63.15625 56.03125 62.609375 56.359375 62.082031 56.714844 C 61.550781 57.066406 61.039062 57.445312 60.546875 57.851562 C 60.054688 58.253906 59.582031 58.683594 59.132812 59.132812 C 58.683594 59.582031 58.253906 60.054688 57.851562 60.546875 C 57.445312 61.039062 57.066406 61.550781 56.714844 62.082031 C 56.359375 62.609375 56.03125 63.15625 55.730469 63.71875 C 55.429688 64.28125 55.160156 64.855469 54.914062 65.445312 C 54.671875 66.035156 54.457031 66.632812 54.273438 67.242188 C 54.085938 67.851562 53.933594 68.46875 53.808594 69.09375 C 53.683594 69.71875 53.589844 70.347656 53.527344 70.984375 C 53.464844 71.617188 53.433594 72.253906 53.433594 72.890625 L 53.433594 695.476562 C 53.433594 696.117188 53.464844 696.75 53.527344 697.386719 C 53.589844 698.019531 53.683594 698.648438 53.808594 699.273438 C 53.933594 699.898438 54.085938 700.515625 54.273438 701.125 C 54.457031 701.734375 54.671875 702.335938 54.914062 702.921875 C 55.160156 703.511719 55.429688 704.089844 55.730469 704.648438 C 56.03125 705.210938 56.359375 705.757812 56.714844 706.289062 C 57.066406 706.816406 57.445312 707.328125 57.851562 707.820312 C 58.253906 708.3125 58.683594 708.785156 59.132812 709.234375 C 59.582031 709.6875 60.054688 710.113281 60.546875 710.519531 C 61.039062 710.921875 61.550781 711.300781 62.082031 711.65625 C 62.609375 712.007812 63.15625 712.335938 63.71875 712.636719 C 64.28125 712.9375 64.855469 713.210938 65.445312 713.453125 C 66.035156 713.695312 66.632812 713.910156 67.242188 714.097656 C 67.851562 714.28125 68.46875 714.4375 69.09375 714.558594 C 69.71875 714.683594 70.347656 714.777344 70.984375 714.839844 C 71.617188 714.902344 72.253906 714.933594 72.890625 714.933594 L 695.476562 714.933594 C 696.117188 714.933594 696.75 714.902344 697.386719 714.839844 C 698.019531 714.777344 698.648438 714.683594 699.273438 714.558594 C 699.898438 714.4375 700.515625 714.28125 701.125 714.097656 C 701.734375 713.910156 702.335938 713.695312 702.921875 713.453125 C 703.511719 713.210938 704.089844 712.9375 704.648438 712.636719 C 705.210938 712.335938 705.757812 712.007812 706.289062 711.65625 C 706.816406 711.300781 707.328125 710.921875 707.820312 710.519531 C 708.3125 710.113281 708.785156 709.6875 709.234375 709.234375 C 709.6875 708.785156 710.113281 708.3125 710.519531 707.820312 C 710.921875 707.328125 711.300781 706.816406 711.65625 706.289062 C 712.007812 705.757812 712.335938 705.210938 712.636719 704.648438 C 712.9375 704.089844 713.210938 703.511719 713.453125 702.921875 C 713.695312 702.335938 713.910156 701.734375 714.097656 701.125 C 714.28125 700.515625 714.4375 699.898438 714.558594 699.273438 C 714.683594 698.648438 714.777344 698.019531 714.839844 697.386719 C 714.902344 696.75 714.933594 696.117188 714.933594 695.476562 L 714.933594 72.890625 C 714.933594 72.253906 714.902344 71.617188 714.839844 70.984375 C 714.777344 70.347656 714.683594 69.71875 714.558594 69.09375 C 714.4375 68.46875 714.28125 67.851562 714.097656 67.242188 C 713.910156 66.632812 713.695312 66.035156 713.453125 65.445312 C 713.210938 64.855469 712.9375 64.28125 712.636719 63.71875 C 712.335938 63.15625 712.007812 62.609375 711.65625 62.082031 C 711.300781 61.550781 710.921875 61.039062 710.519531 60.546875 C 710.113281 60.054688 709.6875 59.582031 709.234375 59.132812 C 708.785156 58.683594 708.3125 58.253906 707.820312 57.851562 C 707.328125 57.445312 706.816406 57.066406 706.289062 56.714844 C 705.757812 56.359375 705.210938 56.03125 704.648438 55.730469 C 704.089844 55.429688 703.511719 55.160156 702.921875 54.914062 C 702.335938 54.671875 701.734375 54.457031 701.125 54.273438 C 700.515625 54.085938 699.898438 53.933594 699.273438 53.808594 C 698.648438 53.683594 698.019531 53.589844 697.386719 53.527344 C 696.75 53.464844 696.117188 53.433594 695.476562 53.433594 Z M 676.023438 676.023438 L 92.347656 676.023438 L 92.347656 92.347656 L 676.023438 92.347656 Z M 676.023438 676.023438 " clip-rule="nonzero"/></clipPath><linearGradient x1="-0.00000000581917" gradientTransform="matrix(38.911762, 0, 0, 38.911762, 53.434417, 53.4344)" y1="8.5" x2="16.999999" gradientUnits="userSpaceOnUse" y2="8.5" id="d77cd12e7f"><stop stop-opacity="1" stop-color="rgb(7.099915%, 76.098633%, 91.398621%)" offset="0"/><stop stop-opacity="1" stop-color="rgb(7.548523%, 75.892639%, 91.407776%)" offset="0.00390625"/><stop stop-opacity="1" stop-color="rgb(7.998657%, 75.686646%, 91.416931%)" offset="0.0078125"/><stop stop-opacity="1" stop-color="rgb(8.447266%, 75.479126%, 91.424561%)" offset="0.0117188"/><stop stop-opacity="1" stop-color="rgb(8.8974%, 75.273132%, 91.433716%)" offset="0.015625"/><stop stop-opacity="1" stop-color="rgb(9.347534%, 75.067139%, 91.442871%)" offset="0.0195312"/><stop stop-opacity="1" stop-color="rgb(9.797668%, 74.861145%, 91.452026%)" offset="0.0234375"/><stop stop-opacity="1" stop-color="rgb(10.246277%, 74.653625%, 91.459656%)" offset="0.0273437"/><stop stop-opacity="1" stop-color="rgb(10.696411%, 74.447632%, 91.468811%)" offset="0.03125"/><stop stop-opacity="1" stop-color="rgb(11.14502%, 74.240112%, 91.477966%)" offset="0.0351562"/><stop stop-opacity="1" stop-color="rgb(11.595154%, 74.034119%, 91.487122%)" offset="0.0390625"/><stop stop-opacity="1" stop-color="rgb(12.043762%, 73.828125%, 91.494751%)" offset="0.0429687"/><stop stop-opacity="1" stop-color="rgb(12.493896%, 73.622131%, 91.503906%)" offset="0.046875"/><stop stop-opacity="1" stop-color="rgb(12.944031%, 73.414612%, 91.513062%)" offset="0.0507812"/><stop stop-opacity="1" stop-color="rgb(13.394165%, 73.208618%, 91.522217%)" offset="0.0546875"/><stop stop-opacity="1" stop-color="rgb(13.842773%, 73.001099%, 91.529846%)" offset="0.0585937"/><stop stop-opacity="1" stop-color="rgb(14.292908%, 72.795105%, 91.539001%)" offset="0.0625"/><stop stop-opacity="1" stop-color="rgb(14.741516%, 72.589111%, 91.548157%)" offset="0.0664062"/><stop stop-opacity="1" stop-color="rgb(15.19165%, 72.383118%, 91.557312%)" offset="0.0703125"/><stop stop-opacity="1" stop-color="rgb(15.641785%, 72.175598%, 91.564941%)" offset="0.0742188"/><stop stop-opacity="1" stop-color="rgb(16.091919%, 71.969604%, 91.574097%)" offset="0.078125"/><stop stop-opacity="1" stop-color="rgb(16.540527%, 71.762085%, 91.583252%)" offset="0.0820312"/><stop stop-opacity="1" stop-color="rgb(16.990662%, 71.556091%, 91.592407%)" offset="0.0859375"/><stop stop-opacity="1" stop-color="rgb(17.43927%, 71.350098%, 91.600037%)" offset="0.0898438"/><stop stop-opacity="1" stop-color="rgb(17.889404%, 71.144104%, 91.609192%)" offset="0.09375"/><stop stop-opacity="1" stop-color="rgb(18.339539%, 70.936584%, 91.618347%)" offset="0.0976562"/><stop stop-opacity="1" stop-color="rgb(18.789673%, 70.730591%, 91.627502%)" offset="0.101562"/><stop stop-opacity="1" stop-color="rgb(19.238281%, 70.524597%, 91.635132%)" offset="0.105469"/><stop stop-opacity="1" stop-color="rgb(19.688416%, 70.318604%, 91.644287%)" offset="0.109375"/><stop stop-opacity="1" stop-color="rgb(20.137024%, 70.111084%, 91.653442%)" offset="0.113281"/><stop stop-opacity="1" stop-color="rgb(20.587158%, 69.90509%, 91.662598%)" offset="0.117188"/><stop stop-opacity="1" stop-color="rgb(21.037292%, 69.697571%, 91.670227%)" offset="0.121094"/><stop stop-opacity="1" stop-color="rgb(21.487427%, 69.491577%, 91.679382%)" offset="0.125"/><stop stop-opacity="1" stop-color="rgb(21.936035%, 69.285583%, 91.688538%)" offset="0.128906"/><stop stop-opacity="1" stop-color="rgb(22.386169%, 69.07959%, 91.697693%)" offset="0.132812"/><stop stop-opacity="1" stop-color="rgb(22.834778%, 68.87207%, 91.705322%)" offset="0.136719"/><stop stop-opacity="1" stop-color="rgb(23.284912%, 68.666077%, 91.714478%)" offset="0.140625"/><stop stop-opacity="1" stop-color="rgb(23.735046%, 68.458557%, 91.723633%)" offset="0.144531"/><stop stop-opacity="1" stop-color="rgb(24.185181%, 68.252563%, 91.732788%)" offset="0.148438"/><stop stop-opacity="1" stop-color="rgb(24.633789%, 68.04657%, 91.740417%)" offset="0.152344"/><stop stop-opacity="1" stop-color="rgb(25.083923%, 67.840576%, 91.749573%)" offset="0.15625"/><stop stop-opacity="1" stop-color="rgb(25.532532%, 67.633057%, 91.758728%)" offset="0.160156"/><stop stop-opacity="1" stop-color="rgb(25.982666%, 67.427063%, 91.767883%)" offset="0.164062"/><stop stop-opacity="1" stop-color="rgb(26.4328%, 67.221069%, 91.775513%)" offset="0.167969"/><stop stop-opacity="1" stop-color="rgb(26.882935%, 67.015076%, 91.784668%)" offset="0.171875"/><stop stop-opacity="1" stop-color="rgb(27.331543%, 66.807556%, 91.793823%)" offset="0.175781"/><stop stop-opacity="1" stop-color="rgb(27.781677%, 66.601562%, 91.802979%)" offset="0.179688"/><stop stop-opacity="1" stop-color="rgb(28.230286%, 66.394043%, 91.810608%)" offset="0.183594"/><stop stop-opacity="1" stop-color="rgb(28.68042%, 66.188049%, 91.819763%)" offset="0.1875"/><stop stop-opacity="1" stop-color="rgb(29.130554%, 65.982056%, 91.828918%)" offset="0.191406"/><stop stop-opacity="1" stop-color="rgb(29.580688%, 65.776062%, 91.838074%)" offset="0.195312"/><stop stop-opacity="1" stop-color="rgb(30.029297%, 65.568542%, 91.845703%)" offset="0.199219"/><stop stop-opacity="1" stop-color="rgb(30.479431%, 65.362549%, 91.854858%)" offset="0.203125"/><stop stop-opacity="1" stop-color="rgb(30.92804%, 65.155029%, 91.864014%)" offset="0.207031"/><stop stop-opacity="1" stop-color="rgb(31.378174%, 64.949036%, 91.873169%)" offset="0.210938"/><stop stop-opacity="1" stop-color="rgb(31.828308%, 64.743042%, 91.880798%)" offset="0.214844"/><stop stop-opacity="1" stop-color="rgb(32.278442%, 64.537048%, 91.889954%)" offset="0.21875"/><stop stop-opacity="1" stop-color="rgb(32.727051%, 64.329529%, 91.899109%)" offset="0.222656"/><stop stop-opacity="1" stop-color="rgb(33.177185%, 64.123535%, 91.908264%)" offset="0.226562"/><stop stop-opacity="1" stop-color="rgb(33.625793%, 63.917542%, 91.915894%)" offset="0.230469"/><stop stop-opacity="1" stop-color="rgb(34.075928%, 63.711548%, 91.925049%)" offset="0.234375"/><stop stop-opacity="1" stop-color="rgb(34.526062%, 63.504028%, 91.934204%)" offset="0.238281"/><stop stop-opacity="1" stop-color="rgb(34.976196%, 63.298035%, 91.943359%)" offset="0.242188"/><stop stop-opacity="1" stop-color="rgb(35.424805%, 63.090515%, 91.950989%)" offset="0.246094"/><stop stop-opacity="1" stop-color="rgb(35.874939%, 62.884521%, 91.960144%)" offset="0.25"/><stop stop-opacity="1" stop-color="rgb(36.323547%, 62.678528%, 91.969299%)" offset="0.253906"/><stop stop-opacity="1" stop-color="rgb(36.773682%, 62.472534%, 91.978455%)" offset="0.257812"/><stop stop-opacity="1" stop-color="rgb(37.223816%, 62.265015%, 91.986084%)" offset="0.261719"/><stop stop-opacity="1" stop-color="rgb(37.67395%, 62.059021%, 91.995239%)" offset="0.265625"/><stop stop-opacity="1" stop-color="rgb(38.122559%, 61.851501%, 92.004395%)" offset="0.269531"/><stop stop-opacity="1" stop-color="rgb(38.572693%, 61.645508%, 92.01355%)" offset="0.273438"/><stop stop-opacity="1" stop-color="rgb(39.021301%, 61.439514%, 92.021179%)" offset="0.277344"/><stop stop-opacity="1" stop-color="rgb(39.471436%, 61.233521%, 92.030334%)" offset="0.28125"/><stop stop-opacity="1" stop-color="rgb(39.920044%, 61.026001%, 92.03949%)" offset="0.285156"/><stop stop-opacity="1" stop-color="rgb(40.370178%, 60.820007%, 92.048645%)" offset="0.289062"/><stop stop-opacity="1" stop-color="rgb(40.820312%, 60.614014%, 92.056274%)" offset="0.292969"/><stop stop-opacity="1" stop-color="rgb(41.270447%, 60.40802%, 92.06543%)" offset="0.296875"/><stop stop-opacity="1" stop-color="rgb(41.719055%, 60.2005%, 92.074585%)" offset="0.300781"/><stop stop-opacity="1" stop-color="rgb(42.169189%, 59.994507%, 92.08374%)" offset="0.304688"/><stop stop-opacity="1" stop-color="rgb(42.617798%, 59.786987%, 92.09137%)" offset="0.308594"/><stop stop-opacity="1" stop-color="rgb(43.067932%, 59.580994%, 92.100525%)" offset="0.3125"/><stop stop-opacity="1" stop-color="rgb(43.518066%, 59.375%, 92.10968%)" offset="0.316406"/><stop stop-opacity="1" stop-color="rgb(43.968201%, 59.169006%, 92.118835%)" offset="0.320312"/><stop stop-opacity="1" stop-color="rgb(44.416809%, 58.961487%, 92.126465%)" offset="0.324219"/><stop stop-opacity="1" stop-color="rgb(44.866943%, 58.755493%, 92.13562%)" offset="0.328125"/><stop stop-opacity="1" stop-color="rgb(45.315552%, 58.547974%, 92.144775%)" offset="0.332031"/><stop stop-opacity="1" stop-color="rgb(45.765686%, 58.34198%, 92.153931%)" offset="0.335938"/><stop stop-opacity="1" stop-color="rgb(46.21582%, 58.135986%, 92.16156%)" offset="0.339844"/><stop stop-opacity="1" stop-color="rgb(46.665955%, 57.929993%, 92.170715%)" offset="0.34375"/><stop stop-opacity="1" stop-color="rgb(47.114563%, 57.722473%, 92.179871%)" offset="0.347656"/><stop stop-opacity="1" stop-color="rgb(47.564697%, 57.516479%, 92.189026%)" offset="0.351562"/><stop stop-opacity="1" stop-color="rgb(48.013306%, 57.30896%, 92.196655%)" offset="0.355469"/><stop stop-opacity="1" stop-color="rgb(48.46344%, 57.102966%, 92.205811%)" offset="0.359375"/><stop stop-opacity="1" stop-color="rgb(48.913574%, 56.896973%, 92.214966%)" offset="0.363281"/><stop stop-opacity="1" stop-color="rgb(49.363708%, 56.690979%, 92.224121%)" offset="0.367188"/><stop stop-opacity="1" stop-color="rgb(49.812317%, 56.483459%, 92.23175%)" offset="0.371094"/><stop stop-opacity="1" stop-color="rgb(50.262451%, 56.277466%, 92.240906%)" offset="0.375"/><stop stop-opacity="1" stop-color="rgb(50.71106%, 56.071472%, 92.250061%)" offset="0.378906"/><stop stop-opacity="1" stop-color="rgb(51.161194%, 55.865479%, 92.259216%)" offset="0.382812"/><stop stop-opacity="1" stop-color="rgb(51.611328%, 55.657959%, 92.266846%)" offset="0.386719"/><stop stop-opacity="1" stop-color="rgb(52.061462%, 55.451965%, 92.276001%)" offset="0.390625"/><stop stop-opacity="1" stop-color="rgb(52.510071%, 55.244446%, 92.285156%)" offset="0.394531"/><stop stop-opacity="1" stop-color="rgb(52.960205%, 55.038452%, 92.294312%)" offset="0.398438"/><stop stop-opacity="1" stop-color="rgb(53.408813%, 54.832458%, 92.301941%)" offset="0.402344"/><stop stop-opacity="1" stop-color="rgb(53.858948%, 54.626465%, 92.311096%)" offset="0.40625"/><stop stop-opacity="1" stop-color="rgb(54.309082%, 54.418945%, 92.320251%)" offset="0.410156"/><stop stop-opacity="1" stop-color="rgb(54.759216%, 54.212952%, 92.329407%)" offset="0.414062"/><stop stop-opacity="1" stop-color="rgb(55.207825%, 54.005432%, 92.337036%)" offset="0.417969"/><stop stop-opacity="1" stop-color="rgb(55.657959%, 53.799438%, 92.346191%)" offset="0.421875"/><stop stop-opacity="1" stop-color="rgb(56.106567%, 53.593445%, 92.355347%)" offset="0.425781"/><stop stop-opacity="1" stop-color="rgb(56.556702%, 53.387451%, 92.364502%)" offset="0.429688"/><stop stop-opacity="1" stop-color="rgb(57.006836%, 53.179932%, 92.372131%)" offset="0.433594"/><stop stop-opacity="1" stop-color="rgb(57.45697%, 52.973938%, 92.381287%)" offset="0.4375"/><stop stop-opacity="1" stop-color="rgb(57.905579%, 52.767944%, 92.390442%)" offset="0.441406"/><stop stop-opacity="1" stop-color="rgb(58.355713%, 52.561951%, 92.399597%)" offset="0.445312"/><stop stop-opacity="1" stop-color="rgb(58.804321%, 52.354431%, 92.407227%)" offset="0.449219"/><stop stop-opacity="1" stop-color="rgb(59.254456%, 52.148438%, 92.416382%)" offset="0.453125"/><stop stop-opacity="1" stop-color="rgb(59.70459%, 51.940918%, 92.425537%)" offset="0.457031"/><stop stop-opacity="1" stop-color="rgb(60.154724%, 51.734924%, 92.434692%)" offset="0.460938"/><stop stop-opacity="1" stop-color="rgb(60.603333%, 51.528931%, 92.442322%)" offset="0.464844"/><stop stop-opacity="1" stop-color="rgb(61.053467%, 51.322937%, 92.451477%)" offset="0.46875"/><stop stop-opacity="1" stop-color="rgb(61.502075%, 51.115417%, 92.460632%)" offset="0.472656"/><stop stop-opacity="1" stop-color="rgb(61.952209%, 50.909424%, 92.469788%)" offset="0.476562"/><stop stop-opacity="1" stop-color="rgb(62.402344%, 50.701904%, 92.477417%)" offset="0.480469"/><stop stop-opacity="1" stop-color="rgb(62.852478%, 50.495911%, 92.486572%)" offset="0.484375"/><stop stop-opacity="1" stop-color="rgb(63.241577%, 50.309753%, 92.382812%)" offset="0.488281"/><stop stop-opacity="1" stop-color="rgb(63.630676%, 50.123596%, 92.280579%)" offset="0.492188"/><stop stop-opacity="1" stop-color="rgb(63.864136%, 49.987793%, 91.889954%)" offset="0.496094"/><stop stop-opacity="1" stop-color="rgb(64.099121%, 49.85199%, 91.500854%)" offset="0.5"/><stop stop-opacity="1" stop-color="rgb(64.332581%, 49.716187%, 91.110229%)" offset="0.503906"/><stop stop-opacity="1" stop-color="rgb(64.567566%, 49.580383%, 90.72113%)" offset="0.507812"/><stop stop-opacity="1" stop-color="rgb(64.801025%, 49.44458%, 90.330505%)" offset="0.511719"/><stop stop-opacity="1" stop-color="rgb(65.036011%, 49.310303%, 89.941406%)" offset="0.515625"/><stop stop-opacity="1" stop-color="rgb(65.270996%, 49.1745%, 89.550781%)" offset="0.519531"/><stop stop-opacity="1" stop-color="rgb(65.505981%, 49.038696%, 89.161682%)" offset="0.523437"/><stop stop-opacity="1" stop-color="rgb(65.739441%, 48.902893%, 88.771057%)" offset="0.527344"/><stop stop-opacity="1" stop-color="rgb(65.974426%, 48.76709%, 88.381958%)" offset="0.53125"/><stop stop-opacity="1" stop-color="rgb(66.207886%, 48.631287%, 87.991333%)" offset="0.535156"/><stop stop-opacity="1" stop-color="rgb(66.442871%, 48.497009%, 87.602234%)" offset="0.539062"/><stop stop-opacity="1" stop-color="rgb(66.676331%, 48.361206%, 87.211609%)" offset="0.542969"/><stop stop-opacity="1" stop-color="rgb(66.911316%, 48.225403%, 86.82251%)" offset="0.546875"/><stop stop-opacity="1" stop-color="rgb(67.144775%, 48.0896%, 86.431885%)" offset="0.550781"/><stop stop-opacity="1" stop-color="rgb(67.379761%, 47.953796%, 86.042786%)" offset="0.554688"/><stop stop-opacity="1" stop-color="rgb(67.614746%, 47.817993%, 85.652161%)" offset="0.558594"/><stop stop-opacity="1" stop-color="rgb(67.849731%, 47.683716%, 85.263062%)" offset="0.5625"/><stop stop-opacity="1" stop-color="rgb(68.083191%, 47.547913%, 84.872437%)" offset="0.566406"/><stop stop-opacity="1" stop-color="rgb(68.318176%, 47.412109%, 84.483337%)" offset="0.570312"/><stop stop-opacity="1" stop-color="rgb(68.551636%, 47.276306%, 84.092712%)" offset="0.574219"/><stop stop-opacity="1" stop-color="rgb(68.786621%, 47.140503%, 83.703613%)" offset="0.578125"/><stop stop-opacity="1" stop-color="rgb(69.020081%, 47.0047%, 83.312988%)" offset="0.582031"/><stop stop-opacity="1" stop-color="rgb(69.255066%, 46.868896%, 82.923889%)" offset="0.585938"/><stop stop-opacity="1" stop-color="rgb(69.488525%, 46.733093%, 82.533264%)" offset="0.589844"/><stop stop-opacity="1" stop-color="rgb(69.723511%, 46.598816%, 82.144165%)" offset="0.59375"/><stop stop-opacity="1" stop-color="rgb(69.958496%, 46.463013%, 81.75354%)" offset="0.597656"/><stop stop-opacity="1" stop-color="rgb(70.193481%, 46.327209%, 81.364441%)" offset="0.601562"/><stop stop-opacity="1" stop-color="rgb(70.426941%, 46.191406%, 80.973816%)" offset="0.605469"/><stop stop-opacity="1" stop-color="rgb(70.661926%, 46.055603%, 80.584717%)" offset="0.609375"/><stop stop-opacity="1" stop-color="rgb(70.895386%, 45.9198%, 80.194092%)" offset="0.613281"/><stop stop-opacity="1" stop-color="rgb(71.130371%, 45.785522%, 79.804993%)" offset="0.617187"/><stop stop-opacity="1" stop-color="rgb(71.363831%, 45.649719%, 79.414368%)" offset="0.621094"/><stop stop-opacity="1" stop-color="rgb(71.598816%, 45.513916%, 79.025269%)" offset="0.625"/><stop stop-opacity="1" stop-color="rgb(71.832275%, 45.378113%, 78.634644%)" offset="0.628906"/><stop stop-opacity="1" stop-color="rgb(72.067261%, 45.24231%, 78.245544%)" offset="0.632812"/><stop stop-opacity="1" stop-color="rgb(72.302246%, 45.106506%, 77.854919%)" offset="0.636719"/><stop stop-opacity="1" stop-color="rgb(72.537231%, 44.972229%, 77.46582%)" offset="0.640625"/><stop stop-opacity="1" stop-color="rgb(72.770691%, 44.836426%, 77.075195%)" offset="0.644531"/><stop stop-opacity="1" stop-color="rgb(73.005676%, 44.700623%, 76.686096%)" offset="0.648438"/><stop stop-opacity="1" stop-color="rgb(73.239136%, 44.564819%, 76.295471%)" offset="0.652344"/><stop stop-opacity="1" stop-color="rgb(73.474121%, 44.429016%, 75.906372%)" offset="0.65625"/><stop stop-opacity="1" stop-color="rgb(73.707581%, 44.293213%, 75.515747%)" offset="0.660156"/><stop stop-opacity="1" stop-color="rgb(73.942566%, 44.158936%, 75.126648%)" offset="0.664062"/><stop stop-opacity="1" stop-color="rgb(74.176025%, 44.023132%, 74.736023%)" offset="0.667969"/><stop stop-opacity="1" stop-color="rgb(74.411011%, 43.887329%, 74.346924%)" offset="0.671875"/><stop stop-opacity="1" stop-color="rgb(74.645996%, 43.751526%, 73.956299%)" offset="0.675781"/><stop stop-opacity="1" stop-color="rgb(74.880981%, 43.615723%, 73.5672%)" offset="0.679688"/><stop stop-opacity="1" stop-color="rgb(75.114441%, 43.479919%, 73.176575%)" offset="0.683594"/><stop stop-opacity="1" stop-color="rgb(75.349426%, 43.344116%, 72.787476%)" offset="0.6875"/><stop stop-opacity="1" stop-color="rgb(75.582886%, 43.208313%, 72.396851%)" offset="0.691406"/><stop stop-opacity="1" stop-color="rgb(75.817871%, 43.074036%, 72.007751%)" offset="0.695312"/><stop stop-opacity="1" stop-color="rgb(76.051331%, 42.938232%, 71.617126%)" offset="0.699219"/><stop stop-opacity="1" stop-color="rgb(76.286316%, 42.802429%, 71.228027%)" offset="0.703125"/><stop stop-opacity="1" stop-color="rgb(76.519775%, 42.666626%, 70.837402%)" offset="0.707031"/><stop stop-opacity="1" stop-color="rgb(76.754761%, 42.530823%, 70.448303%)" offset="0.710937"/><stop stop-opacity="1" stop-color="rgb(76.989746%, 42.39502%, 70.057678%)" offset="0.714844"/><stop stop-opacity="1" stop-color="rgb(77.224731%, 42.260742%, 69.668579%)" offset="0.71875"/><stop stop-opacity="1" stop-color="rgb(77.458191%, 42.124939%, 69.277954%)" offset="0.722656"/><stop stop-opacity="1" stop-color="rgb(77.693176%, 41.989136%, 68.888855%)" offset="0.726562"/><stop stop-opacity="1" stop-color="rgb(77.926636%, 41.853333%, 68.49823%)" offset="0.730469"/><stop stop-opacity="1" stop-color="rgb(78.161621%, 41.717529%, 68.109131%)" offset="0.734375"/><stop stop-opacity="1" stop-color="rgb(78.395081%, 41.581726%, 67.718506%)" offset="0.738281"/><stop stop-opacity="1" stop-color="rgb(78.630066%, 41.447449%, 67.329407%)" offset="0.742188"/><stop stop-opacity="1" stop-color="rgb(78.863525%, 41.311646%, 66.938782%)" offset="0.746094"/><stop stop-opacity="1" stop-color="rgb(79.098511%, 41.175842%, 66.549683%)" offset="0.75"/><stop stop-opacity="1" stop-color="rgb(79.333496%, 41.040039%, 66.159058%)" offset="0.753906"/><stop stop-opacity="1" stop-color="rgb(79.568481%, 40.904236%, 65.769958%)" offset="0.757812"/><stop stop-opacity="1" stop-color="rgb(79.801941%, 40.768433%, 65.379333%)" offset="0.761719"/><stop stop-opacity="1" stop-color="rgb(80.036926%, 40.634155%, 64.990234%)" offset="0.765625"/><stop stop-opacity="1" stop-color="rgb(80.270386%, 40.498352%, 64.599609%)" offset="0.769531"/><stop stop-opacity="1" stop-color="rgb(80.505371%, 40.362549%, 64.21051%)" offset="0.773438"/><stop stop-opacity="1" stop-color="rgb(80.738831%, 40.226746%, 63.819885%)" offset="0.777344"/><stop stop-opacity="1" stop-color="rgb(80.973816%, 40.090942%, 63.430786%)" offset="0.78125"/><stop stop-opacity="1" stop-color="rgb(81.207275%, 39.955139%, 63.040161%)" offset="0.785156"/><stop stop-opacity="1" stop-color="rgb(81.442261%, 39.819336%, 62.651062%)" offset="0.789062"/><stop stop-opacity="1" stop-color="rgb(81.677246%, 39.683533%, 62.260437%)" offset="0.792969"/><stop stop-opacity="1" stop-color="rgb(81.912231%, 39.549255%, 61.871338%)" offset="0.796875"/><stop stop-opacity="1" stop-color="rgb(82.145691%, 39.413452%, 61.480713%)" offset="0.800781"/><stop stop-opacity="1" stop-color="rgb(82.380676%, 39.277649%, 61.091614%)" offset="0.804687"/><stop stop-opacity="1" stop-color="rgb(82.614136%, 39.141846%, 60.700989%)" offset="0.808594"/><stop stop-opacity="1" stop-color="rgb(82.849121%, 39.006042%, 60.31189%)" offset="0.8125"/><stop stop-opacity="1" stop-color="rgb(83.082581%, 38.870239%, 59.921265%)" offset="0.816406"/><stop stop-opacity="1" stop-color="rgb(83.317566%, 38.735962%, 59.532166%)" offset="0.820312"/><stop stop-opacity="1" stop-color="rgb(83.551025%, 38.600159%, 59.141541%)" offset="0.824219"/><stop stop-opacity="1" stop-color="rgb(83.786011%, 38.464355%, 58.752441%)" offset="0.828125"/><stop stop-opacity="1" stop-color="rgb(84.020996%, 38.328552%, 58.361816%)" offset="0.832031"/><stop stop-opacity="1" stop-color="rgb(84.255981%, 38.192749%, 57.972717%)" offset="0.835938"/><stop stop-opacity="1" stop-color="rgb(84.489441%, 38.056946%, 57.582092%)" offset="0.839844"/><stop stop-opacity="1" stop-color="rgb(84.724426%, 37.922668%, 57.192993%)" offset="0.84375"/><stop stop-opacity="1" stop-color="rgb(84.957886%, 37.786865%, 56.802368%)" offset="0.847656"/><stop stop-opacity="1" stop-color="rgb(85.192871%, 37.651062%, 56.413269%)" offset="0.851562"/><stop stop-opacity="1" stop-color="rgb(85.426331%, 37.515259%, 56.022644%)" offset="0.855469"/><stop stop-opacity="1" stop-color="rgb(85.661316%, 37.379456%, 55.633545%)" offset="0.859375"/><stop stop-opacity="1" stop-color="rgb(85.894775%, 37.243652%, 55.24292%)" offset="0.863281"/><stop stop-opacity="1" stop-color="rgb(86.129761%, 37.109375%, 54.853821%)" offset="0.867188"/><stop stop-opacity="1" stop-color="rgb(86.364746%, 36.973572%, 54.463196%)" offset="0.871094"/><stop stop-opacity="1" stop-color="rgb(86.599731%, 36.837769%, 54.074097%)" offset="0.875"/><stop stop-opacity="1" stop-color="rgb(86.833191%, 36.701965%, 53.683472%)" offset="0.878906"/><stop stop-opacity="1" stop-color="rgb(87.068176%, 36.566162%, 53.294373%)" offset="0.882812"/><stop stop-opacity="1" stop-color="rgb(87.301636%, 36.430359%, 52.903748%)" offset="0.886719"/><stop stop-opacity="1" stop-color="rgb(87.536621%, 36.294556%, 52.514648%)" offset="0.890625"/><stop stop-opacity="1" stop-color="rgb(87.770081%, 36.158752%, 52.124023%)" offset="0.894531"/><stop stop-opacity="1" stop-color="rgb(88.005066%, 36.024475%, 51.734924%)" offset="0.898437"/><stop stop-opacity="1" stop-color="rgb(88.238525%, 35.888672%, 51.344299%)" offset="0.902344"/><stop stop-opacity="1" stop-color="rgb(88.473511%, 35.752869%, 50.9552%)" offset="0.90625"/><stop stop-opacity="1" stop-color="rgb(88.708496%, 35.617065%, 50.564575%)" offset="0.910156"/><stop stop-opacity="1" stop-color="rgb(88.943481%, 35.481262%, 50.175476%)" offset="0.914062"/><stop stop-opacity="1" stop-color="rgb(89.176941%, 35.345459%, 49.784851%)" offset="0.917969"/><stop stop-opacity="1" stop-color="rgb(89.411926%, 35.211182%, 49.395752%)" offset="0.921875"/><stop stop-opacity="1" stop-color="rgb(89.645386%, 35.075378%, 49.005127%)" offset="0.925781"/><stop stop-opacity="1" stop-color="rgb(89.880371%, 34.939575%, 48.616028%)" offset="0.929688"/><stop stop-opacity="1" stop-color="rgb(90.113831%, 34.803772%, 48.225403%)" offset="0.933594"/><stop stop-opacity="1" stop-color="rgb(90.348816%, 34.667969%, 47.836304%)" offset="0.9375"/><stop stop-opacity="1" stop-color="rgb(90.582275%, 34.532166%, 47.445679%)" offset="0.941406"/><stop stop-opacity="1" stop-color="rgb(90.817261%, 34.397888%, 47.05658%)" offset="0.945312"/><stop stop-opacity="1" stop-color="rgb(91.052246%, 34.262085%, 46.665955%)" offset="0.949219"/><stop stop-opacity="1" stop-color="rgb(91.287231%, 34.126282%, 46.276855%)" offset="0.953125"/><stop stop-opacity="1" stop-color="rgb(91.520691%, 33.990479%, 45.88623%)" offset="0.957031"/><stop stop-opacity="1" stop-color="rgb(91.755676%, 33.854675%, 45.497131%)" offset="0.960938"/><stop stop-opacity="1" stop-color="rgb(91.989136%, 33.718872%, 45.106506%)" offset="0.964844"/><stop stop-opacity="1" stop-color="rgb(92.224121%, 33.583069%, 44.717407%)" offset="0.96875"/><stop stop-opacity="1" stop-color="rgb(92.457581%, 33.447266%, 44.326782%)" offset="0.972656"/><stop stop-opacity="1" stop-color="rgb(92.692566%, 33.312988%, 43.937683%)" offset="0.976562"/><stop stop-opacity="1" stop-color="rgb(92.926025%, 33.177185%, 43.547058%)" offset="0.980469"/><stop stop-opacity="1" stop-color="rgb(93.161011%, 33.041382%, 43.157959%)" offset="0.984375"/><stop stop-opacity="1" stop-color="rgb(93.395996%, 32.905579%, 42.767334%)" offset="0.988281"/><stop stop-opacity="1" stop-color="rgb(93.630981%, 32.769775%, 42.378235%)" offset="0.992187"/><stop stop-opacity="1" stop-color="rgb(93.864441%, 32.633972%, 41.98761%)" offset="0.996094"/><stop stop-opacity="1" stop-color="rgb(94.099426%, 32.499695%, 41.598511%)" offset="1"/></linearGradient></defs><g clip-path="url(#a671a566f2)"><g clip-path="url(#8ec9ad1031)"><path fill="url(#d77cd12e7f)" d="M 53.433594 53.433594 L 53.433594 714.933594 L 714.933594 714.933594 L 714.933594 53.433594 Z M 53.433594 53.433594 " fill-rule="nonzero"/></g></g></svg>