<svg xmlns="http://www.w3.org/2000/svg" xmlns:xlink="http://www.w3.org/1999/xlink" width="1024" zoomAndPan="magnify" viewBox="0 0 768 767.999994" height="1024" preserveAspectRatio="xMidYMid meet" version="1.0"><defs><clipPath id="733f6102d2"><path d="M 76.800781 103.648438 L 700.050781 103.648438 L 700.050781 664.648438 L 76.800781 664.648438 Z M 76.800781 103.648438 " clip-rule="nonzero"/></clipPath></defs><path fill="#ffffff" d="M 559.820312 228.316406 L 217.03125 228.316406 C 208.429688 228.316406 201.449219 235.296875 201.449219 243.902344 C 201.449219 252.503906 208.429688 259.484375 217.03125 259.484375 L 559.820312 259.484375 C 568.417969 259.484375 575.398438 252.503906 575.398438 243.902344 C 575.398438 235.296875 568.417969 228.316406 559.820312 228.316406 Z M 559.820312 228.316406 " fill-opacity="1" fill-rule="nonzero"/><path fill="#ffffff" d="M 559.820312 321.816406 L 217.03125 321.816406 C 208.429688 321.816406 201.449219 328.796875 201.449219 337.398438 C 201.449219 346.003906 208.429688 352.984375 217.03125 352.984375 L 559.820312 352.984375 C 568.417969 352.984375 575.398438 346.003906 575.398438 337.398438 C 575.398438 328.796875 568.417969 321.816406 559.820312 321.816406 Z M 559.820312 321.816406 " fill-opacity="1" fill-rule="nonzero"/><path fill="#ffffff" d="M 559.820312 415.316406 L 217.03125 415.316406 C 208.429688 415.316406 201.449219 422.296875 201.449219 430.898438 C 201.449219 439.5 208.429688 446.484375 217.03125 446.484375 L 559.820312 446.484375 C 568.417969 446.484375 575.398438 439.5 575.398438 430.898438 C 575.398438 422.296875 568.417969 415.316406 559.820312 415.316406 Z M 559.820312 415.316406 " fill-opacity="1" fill-rule="nonzero"/><g clip-path="url(#733f6102d2)"><path fill="#ffffff" d="M 622.144531 103.652344 L 154.707031 103.652344 C 111.765625 103.652344 76.800781 138.589844 76.800781 181.566406 L 76.800781 493.234375 C 76.800781 536.210938 111.765625 571.148438 154.707031 571.148438 L 232.613281 571.148438 L 232.613281 649.066406 C 232.613281 654.582031 235.511719 659.660156 240.246094 662.46875 C 242.679688 663.933594 245.453125 664.648438 248.195312 664.648438 C 250.78125 664.648438 253.335938 663.996094 255.640625 662.714844 C 255.640625 662.714844 399.300781 584.332031 423.546875 571.148438 L 622.144531 571.148438 C 665.085938 571.148438 700.050781 536.210938 700.050781 493.234375 L 700.050781 181.566406 C 700.050781 138.589844 665.085938 103.652344 622.144531 103.652344 Z M 668.886719 493.234375 C 668.886719 519.007812 647.914062 539.984375 622.144531 539.984375 L 419.585938 539.984375 C 415.785156 539.984375 415.597656 539.984375 263.773438 622.792969 L 263.773438 555.566406 C 263.773438 546.964844 256.792969 539.984375 248.195312 539.984375 L 154.707031 539.984375 C 128.933594 539.984375 107.960938 519.007812 107.960938 493.234375 L 107.960938 181.566406 C 107.960938 155.792969 128.933594 134.816406 154.707031 134.816406 L 622.144531 134.816406 C 647.914062 134.816406 668.886719 155.792969 668.886719 181.566406 Z M 668.886719 493.234375 " fill-opacity="1" fill-rule="nonzero"/></g></svg>