<svg xmlns="http://www.w3.org/2000/svg" xmlns:xlink="http://www.w3.org/1999/xlink" width="1024" zoomAndPan="magnify" viewBox="0 0 768 767.999994" height="1024" preserveAspectRatio="xMidYMid meet" version="1.0"><defs><clipPath id="1fcc67ed57"><path d="M 45 161.777344 L 548 161.777344 L 548 539 L 45 539 Z M 45 161.777344 " clip-rule="nonzero"/></clipPath><clipPath id="57d35c1494"><path d="M 266 230 L 723 230 L 723 606.527344 L 266 606.527344 Z M 266 230 " clip-rule="nonzero"/></clipPath></defs><g clip-path="url(#1fcc67ed57)"><path fill="#ffffff" d="M 63.921875 538.566406 C 57.363281 538.566406 51.269531 534.96875 48.121094 529.113281 C 44.726562 522.792969 45.417969 515.054688 49.886719 509.4375 C 50.128906 509.132812 71.0625 482.789062 90.257812 457.371094 C 61.59375 426.128906 45.984375 388.617188 45.984375 350.269531 C 45.984375 298.890625 72.828125 250.964844 121.570312 215.324219 C 168.621094 180.917969 230.886719 161.972656 296.890625 161.972656 C 362.894531 161.972656 425.160156 180.917969 472.207031 215.324219 C 520.953125 250.964844 547.796875 298.890625 547.796875 350.269531 C 547.796875 401.644531 520.953125 449.570312 472.207031 485.214844 C 425.160156 519.617188 362.894531 538.566406 296.890625 538.566406 C 265.773438 538.566406 235.4375 534.367188 206.660156 526.082031 L 65.5 538.5 C 64.972656 538.546875 64.445312 538.566406 63.921875 538.566406 Z M 208.46875 489.953125 C 210.210938 489.953125 211.949219 490.207031 213.628906 490.710938 C 240.046875 498.644531 268.058594 502.664062 296.890625 502.664062 C 355.339844 502.664062 410.078125 486.175781 451.027344 456.230469 C 490.285156 427.523438 511.90625 389.894531 511.90625 350.269531 C 511.90625 310.648438 490.285156 273.015625 451.027344 244.3125 C 410.078125 214.367188 355.339844 197.878906 296.890625 197.878906 C 238.441406 197.878906 183.699219 214.367188 142.75 244.3125 C 103.492188 273.015625 81.871094 310.648438 81.871094 350.269531 C 81.871094 383.820312 97.167969 415.726562 126.105469 442.542969 C 132.816406 448.761719 133.777344 459.03125 128.339844 466.386719 C 120.476562 477.027344 111.609375 488.65625 103.535156 499.113281 L 206.898438 490.023438 C 207.421875 489.976562 207.945312 489.953125 208.46875 489.953125 Z M 208.46875 489.953125 " fill-opacity="1" fill-rule="nonzero"/></g><g clip-path="url(#57d35c1494)"><path fill="#ffffff" d="M 704.28125 606.472656 C 703.757812 606.472656 703.234375 606.449219 702.703125 606.40625 L 561.539062 593.992188 C 532.765625 602.277344 502.429688 606.472656 471.3125 606.472656 C 392.722656 606.472656 320.230469 579.785156 272.429688 533.257812 C 267.109375 528.082031 265.523438 520.15625 268.445312 513.328125 C 271.367188 506.5 278.230469 502.175781 285.609375 502.453125 C 289.382812 502.59375 293.175781 502.664062 296.886719 502.664062 C 355.335938 502.664062 410.078125 486.175781 451.027344 456.230469 C 490.285156 427.523438 511.902344 389.894531 511.902344 350.269531 C 511.902344 318.027344 497.671875 287.128906 470.738281 260.917969 C 465.417969 255.742188 463.835938 247.820312 466.757812 240.992188 C 469.675781 234.164062 476.5 229.839844 483.914062 230.113281 C 617.542969 235.046875 722.21875 317.65625 722.21875 418.175781 C 722.21875 456.527344 706.609375 494.039062 677.941406 525.28125 C 697.140625 550.695312 718.074219 577.042969 718.316406 577.347656 C 722.785156 582.964844 723.476562 590.703125 720.078125 597.023438 C 716.9375 602.875 710.84375 606.472656 704.28125 606.472656 Z M 336.003906 536.316406 C 373.996094 558.175781 421.785156 570.570312 471.3125 570.570312 C 500.144531 570.570312 528.15625 566.546875 554.578125 558.617188 C 556.757812 557.960938 559.042969 557.726562 561.308594 557.925781 L 664.667969 567.019531 C 656.59375 556.558594 647.730469 544.933594 639.863281 534.289062 C 634.425781 526.933594 635.386719 516.664062 642.097656 510.449219 C 671.035156 483.632812 686.332031 451.726562 686.332031 418.175781 C 686.332031 379.910156 665.976562 343.226562 629.015625 314.882812 C 600.386719 292.929688 564.210938 277.691406 524.460938 270.496094 C 539.828125 295.191406 547.796875 322.207031 547.796875 350.269531 C 547.796875 401.648438 520.953125 449.574219 472.210938 485.214844 C 434.578125 512.730469 387.226562 530.359375 336.003906 536.316406 Z M 336.003906 536.316406 " fill-opacity="1" fill-rule="nonzero"/></g></svg>