<svg xmlns="http://www.w3.org/2000/svg" xmlns:xlink="http://www.w3.org/1999/xlink" width="1024" zoomAndPan="magnify" viewBox="0 0 768 767.999994" height="1024" preserveAspectRatio="xMidYMid meet" version="1.0"><defs><clipPath id="b48a098d0d"><path d="M 63.164062 63.164062 L 690.914062 63.164062 L 690.914062 690.914062 L 63.164062 690.914062 Z M 63.164062 63.164062 " clip-rule="nonzero"/></clipPath></defs><g clip-path="url(#b48a098d0d)"><path fill="#2f669a" d="M 272.472656 123.9375 C 293.351562 87.636719 332.535156 63.214844 377.382812 63.214844 C 422.28125 63.214844 461.464844 87.636719 482.34375 123.9375 C 522.792969 113.066406 567.742188 123.480469 599.492188 155.234375 C 631.191406 186.933594 641.660156 231.933594 630.789062 272.332031 C 667.039062 293.261719 691.460938 332.394531 691.460938 377.292969 C 691.460938 422.1875 667.039062 461.324219 630.789062 482.253906 C 641.660156 522.703125 631.242188 567.648438 599.492188 599.402344 C 567.742188 631.101562 522.792969 641.566406 482.34375 630.648438 C 461.464844 666.949219 422.28125 691.371094 377.382812 691.371094 C 332.535156 691.371094 293.351562 666.949219 272.472656 630.648438 C 232.023438 641.566406 187.027344 631.101562 155.324219 599.402344 C 123.574219 567.648438 113.15625 522.703125 124.027344 482.253906 C 87.726562 461.324219 63.304688 422.1875 63.304688 377.292969 C 63.304688 332.394531 87.777344 293.261719 124.027344 272.332031 C 113.15625 231.933594 123.574219 186.933594 155.324219 155.234375 C 187.027344 123.480469 232.023438 113.066406 272.472656 123.9375 " fill-opacity="1" fill-rule="evenodd"/></g><path fill="#e9b50a" d="M 377.382812 225.816406 C 461.058594 225.816406 528.859375 293.617188 528.859375 377.292969 C 528.859375 460.917969 461.058594 528.769531 377.382812 528.769531 C 293.757812 528.769531 225.957031 460.917969 225.957031 377.292969 C 225.957031 293.617188 293.757812 225.816406 377.382812 225.816406 " fill-opacity="1" fill-rule="evenodd"/><path fill="#000000" d="M 332.285156 303.828125 C 344.46875 303.828125 354.328125 322.839844 354.328125 346.300781 C 354.328125 369.707031 344.46875 388.71875 332.285156 388.71875 C 320.148438 388.71875 310.289062 369.707031 310.289062 346.300781 C 310.289062 322.839844 320.148438 303.828125 332.285156 303.828125 " fill-opacity="1" fill-rule="evenodd"/><path fill="#000000" d="M 418.945312 303.828125 C 431.078125 303.828125 440.9375 322.839844 440.9375 346.300781 C 440.9375 369.707031 431.078125 388.71875 418.945312 388.71875 C 406.757812 388.71875 396.898438 369.707031 396.898438 346.300781 C 396.898438 322.839844 406.757812 303.828125 418.945312 303.828125 " fill-opacity="1" fill-rule="evenodd"/><path fill="#000000" d="M 483.15625 409.800781 C 477.390625 433.414062 463.890625 453.992188 445.539062 468.753906 C 426.882812 483.71875 403.167969 492.667969 377.382812 492.667969 C 351.597656 492.667969 327.9375 483.71875 309.277344 468.753906 C 290.875 453.992188 277.425781 433.414062 271.613281 409.800781 C 269.792969 409.347656 268.125 408.488281 266.707031 407.375 C 264.535156 405.605469 262.914062 403.078125 262.257812 400.195312 C 261.855469 398.171875 263.117188 396.203125 265.140625 395.746094 C 267.113281 395.34375 269.136719 396.605469 269.539062 398.628906 C 269.792969 399.792969 270.449219 400.851562 271.410156 401.5625 C 272.269531 402.269531 273.433594 402.722656 274.644531 402.722656 C 275.910156 402.722656 277.074219 402.269531 277.933594 401.5625 C 278.84375 400.851562 279.550781 399.792969 279.804688 398.628906 C 280.207031 396.605469 282.230469 395.34375 284.203125 395.746094 C 286.222656 396.203125 287.488281 398.171875 287.082031 400.195312 C 286.425781 403.078125 284.859375 405.605469 282.632812 407.375 C 281.574219 408.183594 280.460938 408.839844 279.195312 409.347656 C 284.757812 430.785156 297.144531 449.441406 313.929688 462.941406 C 331.273438 476.894531 353.367188 485.238281 377.382812 485.238281 C 401.449219 485.238281 423.492188 476.894531 440.886719 462.941406 C 457.621094 449.441406 470.058594 430.785156 475.621094 409.347656 C 474.355469 408.839844 473.195312 408.183594 472.183594 407.375 C 469.957031 405.605469 468.339844 403.078125 467.734375 400.195312 C 467.277344 398.171875 468.59375 396.203125 470.566406 395.746094 C 472.585938 395.34375 474.558594 396.605469 475.015625 398.628906 C 475.265625 399.792969 475.925781 400.851562 476.835938 401.5625 C 477.746094 402.269531 478.855469 402.722656 480.121094 402.722656 C 481.382812 402.722656 482.496094 402.269531 483.40625 401.5625 C 484.316406 400.851562 484.972656 399.792969 485.226562 398.628906 C 485.683594 396.605469 487.652344 395.34375 489.675781 395.746094 C 491.699219 396.203125 492.964844 398.171875 492.558594 400.195312 C 491.902344 403.078125 490.285156 405.605469 488.058594 407.375 C 486.644531 408.488281 484.972656 409.347656 483.15625 409.800781 " fill-opacity="1" fill-rule="nonzero"/><path fill="#ffffff" d="M 337.644531 313.535156 C 340.574219 313.535156 343.003906 318.1875 343.003906 323.902344 C 343.003906 329.664062 340.574219 334.316406 337.644531 334.316406 C 334.660156 334.316406 332.234375 329.664062 332.234375 323.902344 C 332.234375 318.1875 334.660156 313.535156 337.644531 313.535156 " fill-opacity="1" fill-rule="evenodd"/><path fill="#ffffff" d="M 425.667969 313.535156 C 428.652344 313.535156 431.027344 318.1875 431.027344 323.902344 C 431.027344 329.664062 428.652344 334.316406 425.667969 334.316406 C 422.683594 334.316406 420.257812 329.664062 420.257812 323.902344 C 420.257812 318.1875 422.683594 313.535156 425.667969 313.535156 " fill-opacity="1" fill-rule="evenodd"/><path fill="#000000" d="M 279.851562 141.835938 C 289.863281 125.65625 303.71875 112.15625 320.148438 102.652344 C 336.984375 92.894531 356.550781 87.332031 377.382812 87.332031 C 398.214844 87.332031 417.78125 92.894531 434.667969 102.652344 C 451.097656 112.15625 464.953125 125.65625 474.914062 141.835938 C 493.417969 137.4375 512.78125 137.691406 531.136719 142.59375 C 549.945312 147.597656 567.691406 157.507812 582.453125 172.222656 C 597.21875 186.984375 607.078125 204.730469 612.082031 223.539062 C 616.984375 241.945312 617.238281 261.308594 612.839844 279.761719 C 629.019531 289.722656 642.570312 303.625 652.074219 320.058594 C 661.78125 336.894531 667.394531 356.460938 667.394531 377.292969 C 667.394531 398.121094 661.78125 417.691406 652.074219 434.527344 C 642.570312 451.007812 629.019531 464.863281 612.839844 474.820312 C 617.238281 493.277344 616.984375 512.640625 612.082031 531.042969 C 607.078125 549.800781 597.21875 567.597656 582.453125 582.3125 C 567.691406 597.074219 549.945312 606.984375 531.136719 611.992188 C 512.78125 616.894531 493.417969 617.148438 474.914062 612.75 C 464.953125 628.929688 451.097656 642.425781 434.667969 651.933594 C 417.78125 661.691406 398.214844 667.304688 377.382812 667.304688 C 356.550781 667.304688 336.984375 661.691406 320.148438 651.933594 C 303.71875 642.425781 289.863281 628.929688 279.851562 612.75 C 261.398438 617.148438 242.035156 616.894531 223.679688 611.992188 C 204.875 606.984375 187.078125 597.074219 172.363281 582.363281 C 157.601562 567.597656 147.742188 549.851562 142.683594 531.042969 C 137.78125 512.640625 137.527344 493.277344 141.925781 474.820312 C 125.746094 464.863281 112.246094 451.007812 102.742188 434.527344 C 92.984375 417.691406 87.421875 398.121094 87.421875 377.292969 C 87.421875 356.460938 92.984375 336.894531 102.742188 320.058594 C 112.246094 303.625 125.746094 289.722656 141.925781 279.761719 C 137.527344 261.308594 137.78125 241.945312 142.683594 223.539062 C 147.742188 204.78125 157.601562 186.984375 172.363281 172.222656 C 187.125 157.507812 204.875 147.597656 223.679688 142.59375 C 242.035156 137.691406 261.398438 137.4375 279.851562 141.835938 Z M 324.597656 110.335938 C 308.519531 119.640625 295.121094 133.089844 285.820312 149.167969 L 284.152344 152.148438 L 280.863281 151.238281 C 262.914062 146.4375 243.90625 146.4375 225.957031 151.1875 C 208.613281 155.839844 192.234375 164.941406 178.683594 178.542969 C 165.082031 192.140625 155.929688 208.523438 151.332031 225.867188 C 146.527344 243.816406 146.527344 262.773438 151.382812 280.722656 L 152.242188 284.007812 L 149.257812 285.730469 C 133.179688 295.03125 119.78125 308.429688 110.429688 324.507812 C 101.480469 340.03125 96.320312 358.027344 96.320312 377.292969 C 96.320312 396.554688 101.480469 414.554688 110.429688 430.078125 C 119.78125 446.15625 133.179688 459.605469 149.257812 468.855469 L 152.242188 470.574219 L 151.382812 473.863281 C 146.527344 491.808594 146.527344 510.769531 151.332031 528.71875 C 155.929688 546.0625 165.082031 562.441406 178.683594 576.042969 C 192.234375 589.644531 208.664062 598.742188 225.957031 603.394531 C 243.90625 608.148438 262.914062 608.148438 280.863281 603.34375 L 284.152344 602.433594 L 285.820312 605.417969 C 295.121094 621.496094 308.519531 634.945312 324.648438 644.246094 C 340.121094 653.195312 358.171875 658.355469 377.382812 658.355469 C 396.648438 658.355469 414.644531 653.195312 430.167969 644.246094 C 446.296875 634.945312 459.695312 621.496094 468.945312 605.417969 L 470.667969 602.433594 L 473.953125 603.34375 C 491.902344 608.148438 510.859375 608.148438 528.859375 603.394531 C 546.152344 598.742188 562.53125 589.644531 576.132812 576.042969 C 589.734375 562.441406 598.835938 546.0625 603.488281 528.71875 C 608.289062 510.769531 608.238281 491.808594 603.4375 473.863281 L 602.527344 470.574219 L 605.507812 468.855469 C 621.585938 459.605469 635.035156 446.15625 644.339844 430.078125 C 653.339844 414.554688 658.445312 396.554688 658.445312 377.292969 C 658.445312 358.027344 653.339844 340.03125 644.339844 324.507812 C 635.035156 308.429688 621.585938 294.980469 605.507812 285.730469 L 602.527344 284.007812 L 603.4375 280.722656 C 608.238281 262.773438 608.289062 243.816406 603.488281 225.867188 C 598.886719 208.523438 589.734375 192.140625 576.132812 178.542969 C 562.53125 164.941406 546.152344 155.839844 528.808594 151.1875 C 510.859375 146.4375 491.902344 146.4375 473.953125 151.238281 L 470.667969 152.148438 L 468.945312 149.167969 C 459.695312 133.089844 446.296875 119.640625 430.167969 110.335938 C 414.644531 101.386719 396.648438 96.230469 377.382812 96.230469 C 358.171875 96.230469 340.121094 101.386719 324.597656 110.335938 " fill-opacity="1" fill-rule="nonzero"/></svg>