<svg xmlns="http://www.w3.org/2000/svg" xmlns:xlink="http://www.w3.org/1999/xlink" width="1024" zoomAndPan="magnify" viewBox="0 0 768 767.999994" height="1024" preserveAspectRatio="xMidYMid meet" version="1.0"><defs><clipPath id="fa89927a57"><path d="M 212 76.800781 L 691 76.800781 L 691 494 L 212 494 Z M 212 76.800781 " clip-rule="nonzero"/></clipPath><clipPath id="9166934ede"><path d="M 192 503 L 576 503 L 576 691.050781 L 192 691.050781 Z M 192 503 " clip-rule="nonzero"/></clipPath></defs><path fill="#ffffff" d="M 230.480469 164.070312 L 201.710938 148.726562 L 185.886719 119.957031 C 183.96875 117.078125 181.09375 115.160156 177.257812 115.160156 C 173.421875 115.160156 170.542969 117.078125 168.625 119.957031 L 153.761719 148.726562 L 124.992188 164.550781 C 122.113281 166.46875 120.195312 169.34375 120.195312 173.179688 C 120.195312 177.015625 122.113281 179.894531 124.992188 181.8125 L 153.761719 197.636719 L 169.585938 226.40625 C 171.503906 229.285156 174.378906 231.203125 178.214844 231.203125 C 182.050781 231.203125 184.929688 229.285156 186.847656 226.40625 L 202.671875 197.636719 L 231.441406 181.8125 C 234.320312 179.894531 236.238281 177.015625 236.238281 173.179688 C 236.238281 169.34375 233.359375 165.988281 230.480469 164.070312 Z M 230.480469 164.070312 " fill-opacity="1" fill-rule="nonzero"/><g clip-path="url(#fa89927a57)"><path fill="#ffffff" d="M 383.925781 76.800781 C 320.628906 76.800781 261.652344 95.980469 212.742188 129.066406 L 216.097656 134.339844 L 229.042969 141.535156 C 273.636719 112.761719 326.863281 95.980469 383.925781 95.980469 C 542.640625 95.980469 671.628906 224.96875 671.628906 383.683594 C 671.628906 413.894531 666.835938 443.144531 658.203125 470.476562 C 658.203125 470.476562 658.203125 470.476562 658.203125 470.957031 L 670.191406 493.011719 C 683.617188 458.96875 690.808594 422.046875 690.808594 383.683594 C 690.808594 214.417969 553.191406 76.800781 383.925781 76.800781 Z M 383.925781 76.800781 " fill-opacity="1" fill-rule="nonzero"/></g><path fill="#ffffff" d="M 686.015625 523.703125 L 657.246094 507.878906 L 641.421875 479.109375 C 639.503906 476.230469 636.625 474.3125 632.789062 474.3125 C 628.953125 474.3125 626.078125 476.230469 624.160156 479.109375 L 608.335938 507.878906 L 579.5625 523.703125 C 576.6875 525.621094 574.769531 528.496094 574.769531 532.332031 C 574.769531 536.167969 576.6875 539.046875 579.5625 540.964844 L 608.335938 556.789062 L 624.160156 585.558594 C 626.078125 588.433594 628.953125 590.351562 632.789062 590.351562 C 636.625 590.351562 639.503906 588.433594 641.421875 585.558594 L 657.246094 556.789062 L 686.015625 540.964844 C 688.890625 539.046875 690.808594 536.167969 690.808594 532.332031 C 690.808594 528.496094 688.890625 525.621094 686.015625 523.703125 Z M 686.015625 523.703125 " fill-opacity="1" fill-rule="nonzero"/><path fill="#ffffff" d="M 607.855469 593.230469 L 598.265625 575.488281 C 587.238281 587.957031 574.769531 599.464844 561.824219 609.535156 C 564.21875 615.765625 566.617188 622 569.015625 627.753906 C 582.441406 617.683594 595.867188 606.175781 607.855469 593.230469 Z M 607.855469 593.230469 " fill-opacity="1" fill-rule="nonzero"/><path fill="#ffffff" d="M 199.3125 628.234375 C 202.191406 622 204.589844 616.246094 206.507812 609.535156 C 139.375 556.789062 96.21875 475.273438 96.21875 383.207031 C 96.21875 323.265625 114.441406 267.644531 145.609375 221.613281 L 139.375 211.0625 L 132.664062 207.707031 C 97.660156 257.09375 77.039062 317.992188 77.039062 383.683594 C 77.039062 483.421875 124.992188 572.613281 199.3125 628.234375 Z M 199.3125 628.234375 " fill-opacity="1" fill-rule="nonzero"/><path fill="#ffffff" d="M 240.074219 484.382812 L 527.777344 484.382812 C 533.050781 484.382812 537.367188 480.066406 537.367188 474.792969 L 537.367188 398.070312 C 537.367188 376.972656 520.105469 359.710938 499.007812 359.710938 L 465.441406 359.710938 C 444.34375 359.710938 427.082031 342.449219 427.082031 321.347656 L 427.082031 291.621094 C 427.082031 262.371094 430.917969 230.722656 440.027344 189.964844 C 440.988281 185.648438 441.464844 181.332031 441.464844 177.015625 C 440.988281 146.328125 416.050781 120.914062 385.84375 119.957031 C 370.019531 119.476562 355.15625 125.230469 344.125 136.257812 C 332.617188 147.289062 326.382812 161.671875 326.382812 177.496094 C 326.382812 182.292969 326.863281 187.085938 328.300781 191.402344 C 336.933594 226.40625 340.769531 253.257812 340.769531 279.152344 L 340.769531 321.347656 C 340.769531 342.449219 323.507812 359.710938 302.410156 359.710938 L 268.84375 359.710938 C 247.746094 359.710938 230.480469 376.972656 230.480469 398.070312 L 230.480469 474.792969 C 230.480469 480.066406 234.796875 484.382812 240.074219 484.382812 Z M 357.074219 150.164062 C 364.746094 142.972656 374.335938 139.136719 384.882812 139.136719 C 405.023438 139.617188 421.804688 156.878906 422.285156 177.015625 C 422.285156 179.894531 421.804688 182.773438 421.328125 185.648438 C 418.929688 197.15625 416.53125 207.707031 415.09375 218.253906 L 353.714844 218.253906 C 351.796875 208.183594 349.398438 198.117188 346.523438 186.609375 C 346.042969 183.730469 345.5625 180.855469 345.5625 177.496094 C 345.5625 166.949219 349.878906 157.359375 357.074219 150.164062 Z M 249.664062 446.023438 L 518.1875 446.023438 L 518.1875 465.203125 L 249.664062 465.203125 Z M 249.664062 446.023438 " fill-opacity="1" fill-rule="nonzero"/><g clip-path="url(#9166934ede)"><path fill="#ffffff" d="M 573.808594 675.226562 C 534.96875 623.917969 524.898438 547.199219 522.503906 503.5625 L 245.347656 503.5625 C 242.949219 547.199219 232.402344 623.917969 194.039062 675.226562 C 191.640625 678.101562 191.640625 681.941406 193.082031 685.296875 C 194.519531 688.652344 197.875 690.570312 201.710938 690.570312 L 428.519531 690.570312 C 433.3125 690.570312 437.628906 686.734375 438.109375 681.941406 L 441.945312 631.589844 L 478.386719 686.734375 C 480.304688 689.613281 483.183594 691.050781 486.539062 691.050781 L 566.136719 691.050781 C 569.972656 691.050781 573.332031 689.132812 574.769531 685.777344 C 576.207031 681.941406 576.207031 678.101562 573.808594 675.226562 Z M 573.808594 675.226562 " fill-opacity="1" fill-rule="nonzero"/></g></svg>